<mxfile host="app.diagrams.net" modified="2023-11-03T09:00:09.516Z" agent="Mozilla/5.0 (Macintosh; Intel Mac OS X 10_15_7) AppleWebKit/537.36 (KHTML, like Gecko) Chrome/118.0.0.0 Safari/537.36 Edg/118.0.2088.76" etag="NG66VUmzZsTPs8F-0kxv" version="22.0.8" type="github">
  <diagram name="第 1 页" id="_23-UQRcNEqVHBs86rbC">
    <mxGraphModel dx="1434" dy="796" grid="1" gridSize="10" guides="1" tooltips="1" connect="1" arrows="1" fold="1" page="1" pageScale="1" pageWidth="1169" pageHeight="1654" math="1" shadow="0">
      <root>
        <mxCell id="0" />
        <mxCell id="1" parent="0" />
        <mxCell id="z-h519-FT7M5sTP4B4l5-2" value="" style="shape=image;verticalLabelPosition=bottom;verticalAlign=top;imageAspect=0;aspect=fixed;image=data:image/png,iVBORw0KGgoAAAANSUhEUgAAAgAAAAIACAYAAAD0eNT6AAAABHNCSVQICAgIfAhkiAAAAAlwSFlzAAAOxAAADsQBlSsOGwAAABl0RVh0U29mdHdhcmUAd3d3Lmlua3NjYXBlLm9yZ5vuPBoAACAASURBVHic7d15lB1nfa/7R62WrNYsy7YsCQtL+MoTg0Dgy2AwHoDI2IxxOBBwVi4Ecs4dfIa74EKSc7krueuSsE4Ozr2sYAKEmOA4nGMm+9gBDMdgGYLxAESDLYwssJBkWbYGa2ipu9X3j1/V2tXtltTDu6t27Xo+a71rd9dWV79791a933rrrfedhqQyzAVmAIuAmcCcrMwEFmaPc4HZwGnAgmzbPKAPmJVt68n2M3fU/qdl+xltPjB91Lb8dxQdBQ6P2jYEHBhjn/uA4VHbDgIDhZ/pB44AzwLHgP2F33Ew27YvezyUlWPA3mw/B8f4vZISmlZ1BaQa6SMa8ImWJUTDrYnpJwLBRMseIkxIOgkDgJqqFzgLWJqVs4DlhcfTGdmIjz7jVmd7lpGh4BlgB7Ab+A3wJLAT2JVtG6ymmlJ1DADqNvlZ+lJg2RiP+XMriBAgQYSEndnjjuzr0Y/5c1JXMACobpYA556grCCub0vtchj4NbDtBOXJKiolTYYBQJ1mEbCK1ln7qkJZTQyKkzrVUeISw9ZCyXsRtgKP89wBlFIlDACqwjlEY74aOB94AbCSOIufU121pLY7SKu34DFgS6E8UVmt1EgGALXLLODCrFxAq8FfjY28NJZDwKO0AsEjWdlE9CxISRkANFW9xLX3i4GLsse1xJn96PvPJU3OTuBBYCMRCDZmpb/KSqneDACaiMXAGuClwEuyr88nJqaRVK4BoofgZ8BPs/IwccujdEoGAJ3IOcAriEY+L+dUWiNJ4/FrWoHgp8BPgO2V1kgdyQAgiJH1LyG67tcCryUG5EnqDvklhLz8iJgxUQ1mAGieHuCFRCP/SuAS4H/Az4LUJMPEQMP7gX8G7iXGFByvslIqlwf97jcbeBnwGuBS4NXENLeSVHSQCAP3AeuzxyOV1khtZQDoPrOJhv5y4PVEl76D9CRN1ADwAPB94HtEIBi9YqRqzABQf73E9fursnIpcQ++JKU0SNxxcHdW7sX5CWrNAFBP5wHrsvI6nFhHUvkOAT8A7gT+iZjZUDViAKiHPuIafn6Wv7ba6kjSc2yl1TtwFzGmQB3MANC5lgBvzcrlRAhQ99kPDAH7sscDwDHi7OoIMdPboWzbUVrXYPN/A3GtNj/YDgLPnuJ35r+naD6nnrmx+G/m0VpOeQ4wM/t6NnBa9v0c4nJUX+Hf5PtYlD3OP8XvVD0dBv478I2s7K62OhqLAaCzrATenpVXE7fsqTMNEOvD52XfqK8PZF8fJBrqg9n2Z7OvD/LcRrip5gNzszIPWFj4fg4RFuZn2xcVSvF7B7p2riFiAOHXga8RCyGpAxgAqnce8G6i0X9pxXVpsqeJs5Q9WXmy8PVTWdmd/bu9tM6+1RnmEoFgMdF7diZwRlbOBM4qfL8Eb4Wt0kPAV4FbgV9WXJdGMwBUYzHwTuB64kzfv0P7HCMa7R2MXJd9Z2HbE3g23jSnEf8PlwKrgGXZ18XHc4geCbXPJuBm4O+AXRXXpXFseMozH3gH8B7gClwpL4Vnicb8CaIx30HMeZ436ruIM3dpss4kAsE52ePyrCwlVsFciSEhhSFi8OA/EL0DpxrHogQMAO23Fvgg0fDPrbgudbSXaOTHKo8TU5pKVVpE9CKMVc7FsTwT1Q/cDnyWCAVqEwNAeywA3gX8a2IVPZ3YAHG2PlYDvwXPBFRvpxE9BmOFg4vw7p5T2UxcHvg8Ll6UnAEgrZcBNwC/g7PxjXaM+M+8EdiQPW4EfkXcuiY1TS/wfGJxrouAFwEXAxfQuq1SoR/4R+BG4OGK69I1DABT1wO8GfjfiEl6mm6QWI98E9HA548bcNpQaTx6ifEFFxPBIH98IdGj0HT3EUHgq8TYAU2SAWDy5gHvB/5XojuviX4F/JyRZ/WbsaGX2uE04EIiELwwKy8mwkITPQb8FfC3OOvgpBgAJm4u0fB/lLifuCn2E418vkzo/cS98pKqtRB4ObEQ2FrgEmLeg6Z4Gvj/gE8Rk21pnAwA4zcP+DfAh+n+SUQOEqt+PVgom3DEvVQXy4gwkJfXEHcrdLNngP8Xg8C4GQBObQ7wH4B/RyTtbjNIDKq5H/gJsf73ZuB4lZWSlNR0YnDhK7JyCXGHUu/Jfqim9gJ/CfxnnLFTk9QDXEdc5x7uojJINPI3Zq+vG0ONpFObQwxc/jjwHWLsTtXHp5TlN8QcLE66pgm5gpivuuoPsA2+pLJ0ayB4EHh9sndJXescYsWqqj+wUykDwD8DnwDW4eyDkiZnHnEM+XPimDJA9ce3qZSvAs9L+g6pK/QA/zOxIEzVH9LJlB3A3wBvw3nJJbXHPOIY8zfEMafq495kyn5ihlanZxYQy/F+j+o/mBMtG4mz/EtxMKek8l0MfIS4NXiI6o+JEyn3EZMrqaGmEaP7+6n+wziecpDowno/sRKZJHWKpcAHgK8Rx6qqj5fjKf3Av8cTqMY5A7iD6j+ApyrbiQku3oRTgEqqh1nAbwGfJkbiV30cPVW5HVjclndCHecSWsvIdmLZA9wMXEt33qMrqTl6iMuUN9LZ4waeyOqpLvZv6cyRrPuIta8vx3tWJXWn6cQt1p8jBuNVfdwdXQaIRd3UZaYRt7JU/QErliHiXtvriftvJakpZhHzktxO552U3Yh3CXSNPmLwXNUfqrxsJRYSWtbOFy1JNbEc+BiddWn2vxIhRTU2H/gh1X+YBojRsb+FyVKSxtJDTDz0dWIG06qP2+txXpXamg38gGo/QE8D/zeRcCVJ4/M84P8hVvir8hh+D9GLrBqZCfw3qvvQ/BK4Aa/tS9JUzCEW9NlMdcfzb+Nt2LUxnequ+f+MGNhiN78kpdMD/A7wL1RzbP8KHtdr4f+i/A/Hz4nR/N7CJ0ntM42YI+UByj/O/0kJr09T8EbKnZP6l8C7cCpJSSrTNOBfEXdVlXW8HwSuLOPFaeLOBnZSzgfhGWIRDG8TkaTqzCDGCOymnGP/kziouyP9E+3/4x8HPo/zRktSJzkD+AJxjG53O3BnSa9J4/QW2v9H3wC8tqwXJEmasNcRS6W3uz24pqwXpJObCWyhvWf9N+JtIJJUB6cBn6C948EewzahI3yY9v2RfwNcVd5LkSQl8kbauwLhfyjvpWgsvcB22vPHfQg4p7yXIklKbBnwY9rTRjyBS7ZX6h205w/7ZRzhL0ndoA/4B9rTVry1xNehUb5N+j/o53HGJ0nqJtOAvyZ9e3FXmS9CLeeQ/paPL2DjL0ndqAf4W9K2GUPEwkUq2YdI+4e8j7ijQJLUnWYA3ydt2/H+Ul+BALiVdH/AJ4El5VZfklSBs0k7c+At5VZfANtI9wf8n8qtuiSpQn9AuvZja8l1b7w+0v3xNuF1f0lqkunAI6RpQ45T00mB6trwrUi4r5uJP6AkqRmGgC8l2tc0ajpnTF0DwIsS7uufEu5LklQPKRf1eUnCfZWmrgEgZdp6POG+JEn1kPLYX8slgusaAPqqroAkSZk5VVdgMuoaAPoT7mtlwn1JkuphVcJ9HU24r9LUNQAcSLivdQn3JUmqh6sT7mtfwn2Vpq4B4KmE+7qe+r4PkqSJmw68L+H+9iTcV2nq2vAdS7ivC4APJNyfJKmzfRBYnXB/Awn3pVNYR9q5nHcDS0t9BZKkKiwjepFTtiG1vJRc1x6A1M4EbqOmszlJksZlBrGOzBlVV6QTGABaXgV8Ft8TSepGPcDngddWXRFNTepLAMXyD8QAEUlSd5gOfJH2tRteAugS/4pY3tHJhiSp/mYT3f6/V3VFOo0BYGy/A/yQtIsOSZLKtQy4B/jtiuvRkQwAJ7YG+DHwpqorIkmasHXAQ8Arqq5IpzIAnNzZwF3ATUQ3kiSps80CPgHcASypuC5qg3YOAjxR2QxcVsaLkyRNyuXAI5TfPtRyEGBdVREAhoHjxEjSM9v+CiVJ43Um8HfEMbqKtsEAUKKqAkBengE+QnQ1SZKqMRO4AdhLtW2CAaBEVQeAvGwDfhfHUkhSmXqIxXx+RfXtgAGgZJ0SAPKygVhV0AmEJKl9eoBridH9VR/3DQAV6bQAkJeNwHswCEhSSr1Eb+tmqj/OGwAq1qkBIC+PE2MEFrbrDZCkBphHXON/nOqP6waADtHpASAv+4BPAs9vz9sgSV1pJfCfgP1Ufxw3AHSYugSAvAwRk1Jcg5cHJGks04G3AHcSx8yqj9sGgA5VtwBQLL8C/hg4J/m7Ikn1cw7wJ8Cvqf74bACogToHgLwMAeuBDwJz0749ktTR+oDrgNuBQao/HhsAaqQbAkCxPEvMMPgmYrSrJHWbGcBvETP2HaT6464BoKa6LQAUy9PAzcS9roYBSXXWA1wK3AjsovrjqwGgC3RzACiWXcBfA28muswkqdP1EQOeP0N3N/oGgIqkDABHEu6rneUQ8E1izMDyqb+FkpTMcuBDxDX9w1R/vCz72G8AKFHKAPAC4LsJ91dW2UiseX0prkUgqXwXExOerae6VfgmW+4FLky4PwNAiVIGAIBpwB8SE/dU/cGcTNkJfA54OzFzliSlNo84xnyOOOZUfdybTNlL9KJOy16TAaCGUgeA3HLgtoT7rqIMAD8G/oIYOzB/Ym+tJAFx7HgzcSy5n/rfrvcVYNmo15hq3waAErUrAOReCfww4e+osgwSlwtuIu67XTSeN1hS48wFriIuLa4HjlL98StFeQC47ASvOdXvMACUqN0BAKKL6DpgW8Lf1QnFQCAJntvgH6P641PKsp3o7j/ZGKlUv8sAUKIyAkBuNvBHxP35VX+g21EGibW1PwO8H3gxzj8gdZte4CXAB4jw/zD179I/UdkDfJTx3Tqd6ncaAEpUZgDIzSWWpWzCfa3HiG6zG4HridG++aAZSZ1vGTGZ2MeB7xC3EVd9XGl3eSp7vQsm8D6l+t0GgBJVEQByc4ggUNdRsJMt+4luwjwUrJzEeycpvaW0Gvvbgd1Uf7wos+QN/2QGPKeqQy0DQF3P6tYRS0amMNn3YA7w+0QYOC9RXepmO/AvWdkIbAA2ExNsSEqrD7iI6JG7GHgRccmuqRODbSFOSL5ITD40GcOJ6nI1cFeifZXGADD196AHuIIIAm9OsL9usBN4kAgFmwqPBgPp1HqBFUQjv5ZWo38+ML3CenWK+4iG/6vEqqpTYQCooU4KAEVriCDwLpy7f7QB4FFaPQX547bsOalpZgLnAi8kGvj8cTWxcp5ajgC3Ap8Cfp5wvwaAGurUAJBbQISADwEva8P+u81eWj0FWwvlMWLsgVRXs4gBeauycjFxRr+KOMv3jpuT20Ssjvo54k6s1AwANdTpAaBoLTFo7r3A6W3+Xd1oLyNDQbFsI+Ygl6q0iFYDP7qspL7H2aocIM72v0QMPG4nA0AN1SkA5OYQ82i/B3gDJv8UDgGPA78mxh1sB3ZkZTtxy+auymqnupsGLCFG2S/PylLgednjCqKBn1NVBbvIAPBt4Bbg60x+UN9ENToA2AiV5xDw91k5nVgv+33AldQ3iFVtDnHd9IUn+TfHiK7DHURIGOvxl8RCUGqOvGt+GdGYj/X4fGzc2+1B4kz/VuDJiuvSOAaAajxDXNe6mTiDeDfwDmK8gGEgrZnEAX3pKf7dAeIA9AwRGJ4ufF3ctqew7WB7qqwJmgssJoL1mdnj4sK2xaO2LcFVM6syTDT6txGN/rZKa9NwdW1s6ngJYDxWAG8jLhW8Fm/56XRHGTsw7CF6FA4QIeFQ9vX+wvfP0lp+usmmAQuJBnkucca9gJjUJf9+PnGdfTFjN+ynlV5rTcQQ8APga0T3/hPVVmeERl8C6KTGbyK6NQAUnQG8BXgrcZnArsjudAToJ4LBABEKhoiwMJBt78/+3TAjL1XsLXxdDBMHOPX90cV/nzfCJ9NL66y5h5HTrRYXlFqY7W820TDPy352IRFoFxC3uM0luuG9XbY7HQLuBr4BfJP2jOBPodEBwEsAnWsP8IWs9BJLFF9DrN61tsJ6Ka2+rLgqo+puK9Ho30EM6DtabXV0KgaAehgkbofJb4lZRfSCrCPWuZ5bUb0kNddB4B7izPcu4o4c1YgBoJ62Ap/OynRiBsKrsnIp0bUqSSkNAj8jzvLvJq7rH6u0RpoSA0D9DRGjah8E/pxo/F9NrE/weuDlOEhK0sT1E8uC3wN8D/hRtk1dwgDQffqJ/6zfy77vBV5C9Ay8BricGGAoSUUHgPuJxXbyS442+F3MAND9Bmn1ENxIjNC+iAgDrwIuAS4gRnZLaoYh4BGiwf8R0ehvxttSG8UA0DzDxKI7G4HPZtvmEuMI1hbKRZXUTlI75Et052U9I28jVQMZAAQxmrd4lwHA2cT4gTVZeSlx94GkzjVMDBJ+GPhpVh7AaXY1BgOATmQXcT/vHYVtC2iFgTXE2IKLiOl2JZXrKNFtnzf0DxOj9F1CW+NiANBE7Ae+n5VcLzGFcb7OefHR2xGlqRskVrzcRFy6yx834GQ7mgIDgKZqkOhy3ArcXtg+E1gNXAicXyirGTmNrKSwH3gU2EIM0NtCNPZbiGmhpaQMAGqXY8QZyoYxnjubkYHgPODcrBgO1M32ESvgbQMeIxr3vMH3Or1KZQBQFXZl5ftjPNdHLN27aoxyHgYEdbZ+YAetXrFi2Zk9J3UEA4A6zRFaB8yxnEGrt2Bl4etzibEIrougdjpIXI9/nNaZfLHsqaRW0iQYAFQ3e7LywAmen0WsEb8UWFZ4XDRq2wr8/KtlL60z9J3Z9ztGbfsNI5djlmrNA6C6Td4Fu4OY8OREeoCzgCXA8uzrZdn3ZxM9DYsKxUsP9bKPaMTzsoe4xr6L+GzsJhr03Vk5Xk01peoYANRUx2mNRfjZOH+mj5GhYLzlLGLVRk1MPyMb8fGWp3DUvHRKBgBp/I5kZTIDufqIyxPzgRlEj8KsbPu8bNtCYuXG2cRYhhlEgJgJzMlKPulS/nxR8fncbJ67GmRel6J+4rUVHQUOj9p2DDg0atsAcW28+Pyh7Ou9hecPZ/vcl217Nvud/cQtcAPEgjRj1UVSYgYAqRx5eHD+dUkdwRXgJElqIAOAJEkNZACQJKmBDACSJDWQAUCSpAYyAEiS1EAGAEmSGsgAIElSAxkAJElqIAOAJEkNZACQJKmBDACSJDWQAUCSpAYyAEiS1EAGAEmSGsgAIElSAxkAJElqoN6qKyBJarTVwLXAhcBiYD/wC+Au4KEK66UOtQ4YTlQkSeV7MfAtTn58vh+4rI11SNWOrGtjHTWKAUCS6ut6oJ/xHaOHgI8B09pQDwNADRkAJKmefhs4zsSP1R9rQ10MADVkAJCk+nkBcJjJHauHgNclrk+jA4B3AUiSyvJnQN8kf7YH+GTCujSeAUCSVIbTie7/qbgEWJOgLsIAIEkqxxtIc+v51Qn2IQwAkqRynNdh+2k8A4AkqQwLE+3n9ET7aTwDgCSpDE8l2s+TifbTeAYASVIZHumw/TSeAUCSVIa7iTkApuqOBPsQBgBJUjkOA1+Y4j7uJBYKUgIGAElSWf6UyY8F6Ac+nLAujWcAkCSVZTfwTuDYBH9uGPgAsDF5jRrMACBJKtO9wBWMfzR/P7F64JfbVqOGMgBIksp2H/Ai4K848cDAAaLRvxD4+5Lq1SgppmWUJGmingJuAD4KXAlcAJwB7AMeA76Tfa02MQBIkqp0GLg9KyqRlwAkSWogA4AkSQ1kAJAkqYEMAJIkNZABQJKkBjIASJLUQAYASZIayAAgSVIDGQAkSWogA4AkSQ1kAJAkqYEMAJIkNZABQJKkBjIASJLUQAYASZIayAAgSVIDGQAkSWogA4AkSQ1kAJAkqYEMAJIkNZABQJKkBjIASJLUQAYASZIaqK4BYFrVFZAkKVPLNqmuAWBJ1RWQJClTyzaprgHgjKorIElS5vSqKzAZdQ0AMxLua0HCfUmS6mFhwn3NTLiv0tQ1APQn3NfKhPuSJNXDqoT7OppwX6WpawA4kHBf6xLuS5JUD1cn3Ne+hPsqTV0DwFMJ93U99X0fJEkTNx14X8L97Um4r9LUteE7lnBfFwDvT7g/SVJn+yCwOuH+BhLuS6ewDhhOWHYDS0t9BZKkKiwjepFTtiG1vJRc1x6A1M4EbqOmIzklSeMyA7gVbyUHDABFrwI+i++JJHWjHuDzwGurroimJvUlgGK5hRggIknqDtOBL9K+dsNLAF3i3cCXgb6qKyJJmrLZwD8Cv1d1RTqNAWBs7wJ+CKyouiKSpElbBtwDvLPienQkA8CJrQH+GXhj1RWRJE3Y1cBDwCuqrkinMgCc3FLgn4CbiG4kSVJnmwV8Aridmq7Sp5Nr5yDAE5VNwGVlvDhJ0qRcDjxK+e1DLQcB1lUVAWAYOA78Ld5DKkmd5EzgZuIYXUXbYAAoUVUBIC/PAB8hupokSdWYCdwA7KXaNsEAUKKqA0BeHgd+F8dSSFKZeoiF3H5F9e2AAaBknRIA8rKB+DA6gZAktU8PcC3wMNUf9w0AFem0AJCXjcREQgYBSUqnF3gvsJnqj/MGgIp1agDIy1ZijMDCdr0BktQA84hr/Nuo/rhuAOgQnR4A8rIP+Avg+e15GySpK60C/hLYT/XHcQNAh6lLAMjLIDEpxTV4eUCSxjIdeCtwFzBE9cdtA0CHqlsAKJZtwB8Dz0v9pkhSDa0A/iPwBNUfnw0ANVDnAJCXIWA98EFgbtq3R5I6Wh9wHdEzOkj1x2MDQI10QwAolgPEWtVvJEa7SlK3mUEcu28GDlL9cdcAUFPdFgCK5WniP8i1GAYk1VsPcClwI/Ak1R9fDQBdoJsDQLHsBP6aWNayL8k7J0ntNZs4gbmJ7m70DQAVSRkAjiTcVzvLIeCbxJiB5VN/CyUpmecBfwjcARym+uNl2cd+A0CJUgaAFwDfTbi/sspGYs3rS3EtAknlu5iY8Gw91a3CN9lyL3Bhwv0ZAEqUMgAATCPS676E+y2z7AQ+B7yNmDlLklKbD7wD+Dywi+qPe5Mpe4le1GnZazIA1FDqAJBbDtyWcN9VlAHgx8QMhFdjIJA0OQuIycs+CfyE+t+u9xVg2ajXmGrfBoAStSsA5F4J/DDh76iyDAIPEKNwrwMWjecNltQ4c4GriEuL64FjVH/8SlEeAC47wWtO9TsMACVqdwCA6CK6js5fhGKiZZAYP3ATBgKpybq1wc/LdqK7/2RjpFL9LgNAicoIALnZwB8R9+dX/YFuRxkEHgI+A7wfeDHOPyB1m15gDfAHwN8AP6X+XfonKnuAjzK+W6dT/U4DQInKDAC5ucSylHUd/DKRcozWZYPridG++aAZSZ1vGXEv/seB7xC3EVd9XGl3eSp7vQsm8D6l+t0GgBJVEQByc4ggsDNhHepQ9hPdhHkoWDmJ905SektpNfa3A7up/nhRZskb/vmTeO9S1aGWAaCuZ3XrgDsT7Wuy78Ec4PeJMHBeorrUzXbg58AGYlzBBmAzMcGGpLT6gIuIHrmLgRcRl+yaOjHYFuKE5IvE5EOTMZyoLlcTyxjXigFg6u9BD3AFEQTenGB/3WAn8CARCjZljxuB/iorJdVEL7FE7sXAWlqN/vnA9Arr1SnuIxr+rxKrqk6FAaCGOikAFK0hgsC7cO7+0QaAR2n1FOSP27LnpKaZCZwLvJBo4PPH1cTKeWo5AtwKfIrodUzFAFBDnRoAcguIEPAh4GVt2H+32Uurp2BroTxGjD2Q6moWMSBvVVYuJs7oVxFn+d5xc3KbiNVRP0fciZWaAaCGOj0AFK0lBs29Fzi9zb+rG+1lZCgolsdJ9x9YmqxFtBr40WUl9T3OVuUAcbb/JWLgcTsZAGqoTgEgNwd4O/Ae4A2Y/FM4RASBJ4hxB9uBHVnZnm17srLaqe6mAUuIUfbLs7KUWPluKXEGv5L4v62pGQC+DdwCfJ3JD+qbKANADdUxABSdTsyx/T7gyorq0BTHiK7DHUQgGOvxl8RCUGqOvGt+GdGYj/X4fGzc2+1B4kz/VqoJ640OAJ6FVuMZ4rrWzcQZxLuJVbZehmEgtZnEAX3pKf7dAeIA9AwRGJ4ufF3ctqew7WB7qqwJmgssJoL1mdnj4sK2xaO2LcFFsqoyTDT6txGN/rZKa9NwdW1s6t4DcCIriCV93w68Fm/56XRHGTsw7CF6FA4QIeFQ9vX+wvfP0lp+usmmAQuJBnkucca9gJjUJf9+PnGdfTFjN+ynlV5rTcQQ8APga0T3/hPVVmeERvcAdFLjNxHdGgCKzgDeAryVuExgV2R3OkLMj/AsMTf7PuKAuZ+4Lnowe/4IcbAqXqrYW/i6GCYOcOr7o4v/Pm+ET6aX1llzDyOnWy0uKLUw299somGel/3sQiLQLiBucZtLdMN7u2x3OgTcDXwD+CbtGcGfQqMDgJcAOtce4AtZ6SWWKL6GWL1rbYX1Ulp9WXFVRtXdVqLRv4MY0He02uroVAwA9TBI3A6T3xKziugFWUescz23onpJaq6DwD3Eme9dxG25qhEDQD1tBT6dlenEDIRXZeVSomtVklIaBH5GnOXfTVzXP1ZpjTQlBoD6GyJG1T4I/DnR+L+aWJ/g9cDLcZCUpInrJ5YFvwf4HvAjXM+jqxgAuk8/8Z/1e9n3vcBLiJ6B1wCXEwMMJanoAHA/sdhOfsnRBr+LGQC63yCtHoIbiRHaFxFh4FXAJcAFxMhuSc0wBDxCNPg/Ihr9zXhbaqMYAJpnmNbyvJ/Nts0lxhGsLZSLKqmdpHbIl+jOy3pG3kaqBjIACGI0b/EuA4CzifEDa7LyUuLuA0mda5gYJPww8NOsPIBrYmgMBgCdyC7ift47CtsW0AoDa4ixBRcR0+1KKtdRots+b+gfJkbpu4S2xsUAoInYD3w/K7leYgrjfJ3z4qO3I0pTNwj8GthEXLrLHzfgZDuaAgOApmqQ6HLcCtxe2D4TWA1cCJxfKKsZOY2spLAfeBTYQgzQ20I09luIyF/OAwAAGstJREFUaaGlpAwAapdjxBnKhjGeO5uRgeA84NysGA7UzfYRK+BtAx4jGve8wfc6vUplAFAVdmXl+2M810cs3btqjHIeBgR1tn5gB61esWLZmT0ndQQDgDrNEVoHzLGcQau3YGXh63OJsQiui6B2Okhcj3+c1pl8seyppFbSJBgAVDd7svLACZ6fRawRvxRYVnhcNGrbCvz8q2UvrTP0ndn3O0Zt+w0jl2OWas0DoLpN3gW7g5jw5ER6gLOAJcDy7Otl2fdnEz0NiwrFSw/1so9oxPOyh7jGvov4bOwmGvTdWTleTTWl6hgA1FTHaY1F+Nk4f6aPkaFgvOUsYtVGTUw/Ixvx8ZancNS8dEoGAGn8jmRlMgO5+ojLE/OBGUSPwqxs+7xs20Ji5cbZxFiGGUSAmAnMyUo+6VL+fFHx+dxsnrsaZF6Xon7itRUdBQ6P2nYMODRq2wBxbbz4/KHs672F5w9n+9yXbXs2+539xC1wA8SCNGPVRVJiBgCpHHl4cP51SR3BFeAkSWogA4AkSQ1kAJAkqYEMAJIkNZABQJKkBjIASJLUQAYASZIayAAgSVIDGQAkSWogA4AkSQ1kAJAkqYEMAJIkNZABQJKkBjIASJLUQAYASZIayAAgSVIDGQAkSWqg3qorIElqtNXAtcCFwGJgP/AL4C7goQrrpQ61DhhOVCRJ5Xsx8C1Ofny+H7isjXVI1Y6sa2MdNYoBQJLq63qgn/Edo4eAjwHT2lAPA0ANGQAkqZ5+GzjOxI/VH2tDXQwANWQAkKT6eQFwmMkdq4eA1yWuT6MDgHcBSJLK8mdA3yR/tgf4ZMK6NJ4BQJJUhtOJ7v+puARYk6AuwgAgSSrHG0hz6/nVCfYhDACSpHKc12H7aTwDgCSpDAsT7ef0RPtpPAOAJKkMTyXaz5OJ9tN4BgBJUhke6bD9NJ4BQJJUhruJOQCm6o4E+xAGAElSOQ4DX5jiPu4kFgpSAgYASVJZ/pTJjwXoBz6csC6NZwCQJJVlN/BO4NgEf24Y+ACwMXmNGswAIEkq073AFYx/NH8/sXrgl9tWo4YyAEiSynYf8CLgrzjxwMABotG/EPj7kurVKCmmZZQkaaKeAm4APgpcCVwAnAHsAx4DvpN9rTYxAEiSqnQYuD0rKpGXACRJaiADgCRJDWQAkCSpgQwAkiQ1kAFAkqQGMgBIktRABgBJkhrIACBJUgMZACRJaiADgCRJDWQAkCSpgQwAkiQ1kAFAkqQGMgBIktRABgBJkhrIACBJUgMZACRJaiADgCRJDWQAkCSpgQwAkiQ1kAFAkqQGMgBIktRABgBJkhqorgFgWtUVkCQpU8s2qa4BYEnVFZAkKVPLNqmuAeCMqisgSVLm9KorMBl1DQAzEu5rQcJ9SZLqYWHCfc1MuK/S1DUA9Cfc18qE+5Ik1cOqhPs6mnBfpalrADiQcF/rEu5LklQPVyfc176E+ypNXQPAUwn3dT31fR8kSRM3HXhfwv3tSbiv0tS14TuWcF8XAO9PuD9JUmf7ILA64f4GEu5Lp7AOGE5YdgNLS30FkqQqLCN6kVO2IbW8lFzXHoDUzgRuo6YjOSVJ4zIDuBVvJQcMAEWvAj6L74kkdaMe4PPAa6uuiKYm9SWAYrmFGCAiSeoO04Ev0r52w0sAXeLdRAjoq7oikqQpmw38I/B7VVek0xgAxvY7wA+BFVVXRJI0acuAe4B3VlyPjmQAOLE1wI+BN1VdEUnShF0NPAS8ouqKdCoDwMmdDdwF3ER0I0mSOtss4BPA7dR0lT6dXDsHAZ6obAZeX8JrkyRNzuXAo5TfPtRyEGBdVREAhoHjxEjSM9v+CiVJ43UmcDNxjK6ibTAAlKiqAJCXZ4CPEF1NkqRqzARuAPZSbZtgAChR1QEgL9uA9+JYCkkqUw+xkNuvqL4dMACUrFMCQF42Eh9GJxCSpPbpAa4FHqb6474BoCKdFgDysgl4DwYBSUqpl+ht3Uz1x3kDQMU6NQDk5XFijMDCdr0BktQA84hr/Nuo/rhuAOgQnR4A8rIP+CRwblveBUnqTquAvwT2U/1x3ADQYeoSAPIyBPw34tqVlwck6bmmA28lJl8bovrjtgGgQ9UtABTLr4A/Bs5J/q5IUv2sAP4j8ATVH58NADVQ5wCQlyFgPfBB4jqXJDVFH3AdMV3vINUfjw0ANdINAaBYniVmGHwTMdpVkrrNDOLYfTNwkOqPuwaAmuq2AFAszxD/Qa4l/sNIUl31AJcCNwJPUv3x1QDQBbo5ABTLLuAzwDVEl5kkdbrZxAnMTXR3o28AqEjKAHAk4b7aWQ4R18s+BDxv6m+hJCXzPOAPgTuAw1R/vCz72G8AKFHKAPAC4LsJ91dW2UiseX0prkUgqXwXExOerae6VfgmW+4FLky4PwNAiVIGAIBpRHrdl3C/ZZZdwOeBtwPzJ/umStJJzAfeQRxrdlH9cW8yZS9x59W07DUZAGoodQDILQduS7jvKsogcD8xA+GbMRBImpwFxPijTwI/of63630FWDbqNabatwGgRO0KALlXAj9M+DuqLIPE5YKbiPtuF43nDZbUOHOBq4hLi+uBY1R//EpRHgAuO8FrTvU7DAAlancAgOgiuo7OX4RiomV0IDj9ZG+0pK7VrQ1+XrYT3f0nGyOV6ncZAEpURgDIzQb+CHg64e/spDJIrK19E/AB4CU4GZHUbXqBNcAfAH8D/JT6d+mfqOwBPsr4bp1O9TsNACUqMwDk5hLLUtZ18MtEyjGi2+xG4HpitG8+aEZS51tG3Iv/ceA7xG3EVR9X2l2eyl7vggm8T6l+twGgRFUEgNwcIgjsTFiHOpT9RDdhHgpWTuK9k5TeUlqN/e3Abqo/XpRZ8oZ/MgOeU9WhlgGgrmd164A7E+1rsu/BHOD3iTBwXqK61M124OfABmJcwQZgMzHBhqS0+oCLiB65i4EXAS8m7l5qoi3ECckXicmHJmM4UV2uJpYxrhUDwNTfgx7gCiIIvDnB/rrBTuBBIhRsyh43Av1VVkqqiV5iidyLgbW0Gv3zgekV1qtT3Ec0/F8lVlWdCgNADXVSAChaQwSBd+Hc/aMNAI/S6inIH7dlz0lNMxM4F3gh0cDnj6txIbDRjgC3Ap8ieh1TMQDUUKcGgNwCIgR8CHhZG/bfbfbS6inYWiiPEWMPpLqaRQzIW5WVi4kz+lXEWb533JzcJmJ11M8Rd2KlZgCooU4PAEVriUFz78V77idjLyNDQbE8Trr/wNJkLaLVwI8uK6nvcbYqB4iz/S8RA4/byQBQQ3UKALk5xFz97wHegMk/hUNEEHiCGHewHdiRle3Zticrq53qbhqwhBhlvzwrS4mV75YSZ/Arif/bmpoB4NvALcDXmfygvokyANRQHQNA0enEHNvvA66sqA5NcYzoOtxBBIKxHn9JLASl5si75pcRjflYj8/Hxr3dHiTO9G+lmrDe6ADgWWg1niGua91MnEG8m1hl62UYBlKbSRzQl57i3x0gDkDPEIHh6cLXxW17CtsOtqfKmqC5wGIiWJ+ZPS4ubFs8atsSYF4lNdUw0ejfRjT62yqtTcPVtbGpew/AiawA3kZcKngt3vLT6Y4ydmDYQ/QoHCBCwqHs6/2F75+ltfx0k00DFhIN8lzijHsBMalL/v184jr7YsZu2E8rvdaaiCHgB8DXiO79J6qtzgiN7gHopMZvIro1ABSdAbwFeCtxmcCuyO50hJgf4VlibvZ9xAFzP3Fd9GD2/BHiYFW8VLG38HUxTBzg1PdHF/993gifTC+ts+YeRk63WlxhcmG2v9lEwzwv+9mFRKBdQNziNpfohvd22e50CLgb+AbwTdozgj+FRgcALwF0rj3AF7LSSyxRfA2xetfaCuultPqy4jLNqrutRKN/BzGg72i11dGpGADqYZC4HSa/JWYV0Quyjljnem5F9ZLUXAeBe4gz37uI23JVIwaAetoKfDor04kZCK/KyqVE16okpTQI/Iw4y7+buK5/rNIaaUoMAPU3RIyqfRD4c6LxfzWxPsHrgZfjIClJE9dPLAt+D/A94Ee4nkdXMQB0n37iP+v3su97gZcQPQOvAS4nBhhKUtEB4H5isZ38kqMNfhczAHS/QVo9BDcSI7QvIsLAq4BLgAuIkd2SmmEIeIRo8H9ENPqb8bbURjEANM8wreV5P5ttm0uMI1hbKBdVUjtJ7ZAv0Z2X9Yy8jVQNZAAQxGje4l0GAGcT4wfWZOWlxN0HkjrXMDFI+GHgp1l5ANfE0BgMADqRXcT9vHcUti2gFQbWEGMLLiKm25VUrqNEt33e0D9MjNJ3CW2NiwFAE7Ef+H5Wcr3EFMb5OufFR29HlKZuEPg1sIm4dJc/bsDJdjQFBgBN1SDR5bgVuL2wfSawGrgQOL9QVjNyGllJYT/wKLCFGKC3hWjstxDTQktJGQDULseIM5QNYzx3NiMDwXnAuVkxHKib7SNWwNsGPEY07nmD73V6lcoAoCrsysr3x3iuj1i6d9UY5TwMCOps/cAOWr1ixbIze07qCAYAdZojtA6YYzmDVm/BysLX5xJjEVwXQe10kLge/zitM/li2VNJraRJMACobvZk5YETPD+LWCN+KbCs8Lho1LYV+PlXy15aZ+g7s+93jNr2G0YuxyzVmgdAdZu8C3YHMeHJifQAZwFLgOXZ18uy788mehoWFYqXHuplH9GI52UPcY19F/HZ2E006LuzcryaakrVMQCoqY7TGovws3H+TB8jQ8F4y1nEqo2amH5GNuLjLU/hqHnplAwA0vgdycpkBnL1EZcn5gMziB6FWdn2edm2hcTKjbOJsQwziAAxE5iTlXzSpfz5ouLzudk8dzXIvC5F/cRrKzoKHB617RhwaNS2AeLaePH5Q9nXewvPH872uS/b9mz2O/uJW+AGiAVpxqqLpMQMAFI58vDg/OuSOoIrwEmS1EAGAEmSGsgAIElSAxkAJElqIAOAJEkNZACQJKmBDACSJDWQAUCSpAYyAEiS1EAGAEmSGsgAIElSAxkAJElqIAOAJEkNZACQJKmBDACSJDWQAUCSpAYyAEiS1EC9VVdAktRoq4FrgQuBxcB+4BfAXcBDFdZLHWodMJyoSJLK92LgW5z8+Hw/cFkb65CqHVnXxjpqFAOAJNXX9UA/4ztGDwEfA6a1oR4GgBoyAEhSPf02cJyJH6s/1oa6GABqyAAgSfXzAuAwkztWDwGvS1yfRgcA7wKQJJXlz4C+Sf5sD/DJhHVpPAOAJKkMpxPd/1NxCbAmQV2EAUCSVI43kObW86sT7EMYACRJ5Tivw/bTeAYASVIZFibaz+mJ9tN4BgBJUhmeSrSfJxPtp/EMAJKkMjzSYftpPAOAJKkMdxNzAEzVHQn2IQwAkqRyHAa+MMV93EksFKQEDACSpLL8KZMfC9APfDhhXRrPACBJKstu4J3AsQn+3DDwAWBj8ho1mAFAklSme4ErGP9o/n5i9cAvt61GDWUAkCSV7T7gRcBfceKBgQNEo38h8Pcl1atRUkzLKEnSRD0F3AB8FLgSuAA4A9gHPAZ8J/tabWIAkCRV6TBwe1ZUIi8BSJLUQAYASZIayAAgSVIDGQAkSWogA4AkSQ1kAJAkqYEMAJIkNZABQJKkBjIASJLUQAYASZIayAAgSVIDGQAkSWogA4AkSQ1kAJAkqYEMAJIkNZABQJKkBjIASJLUQAYASZIayAAgSVIDGQAkSWogA4AkSQ1kAJAkqYEMAJIkNZABQJKkBjIASJLUQAYASZIaqK4BYCDhvhYk3JckqR4WJtzXsYT7Kk1dA8DhhPtamXBfkqR6WJVwXynbpNLUNQDsSbivdQn3JUmqh6sT7mt3wn3pFGYBx4HhBGUz9Q1CkqSJmw48Spo2ZAg4rdzq6xek+eMNA39Qct0lSdX516RrPx4pue4C/oF0f8DdwNJyqy9JqsAy4CnStR9fLrf66dS56/u/J9zXmcBtwMyE+5QkdZYZwK3AGQn3+d2E+9I4PY+49pIqxQ0DX6TeoUiSNLYe4GbSthlDwPIyX4RavkXaP+YwcAsxQESS1B2mEyd4qduLO0t8DRrlbaT/gw4TXUR9Jb4OSVJ7zAb+C+1pK95S4uvQKL3Adtrzh30YWFHeS5EkJbYMuJ/2tBG/xt7iyv3vtOePOwzsAN5Y3kuRJCWyDthF+9qHf1feS9GJzCTdhA5jlePATUQ3kiSps80CPkH6QeLF8guc/KdjXEP7/tB52QRcVtYLkiRN2OXExDztbg9STiOsBO6k/X/048DfkvYeUknS1JwJ/B3ppog/WbmjpNekCVhCXLNv9x9/GHgG+AjR1SRJqsZM4AZgL+Uc+3cRAwvVga4EBinngzAMPA78Lk4eJEll6gHeB/yK8o73g8DrS3htmoL/k/I+EHnZAFyPt4RIUjv1ANcCD1H+cf6jJbw+TVEP8BXK/3AMAxuBd2MQkKSUeone1s1Uc2y/BXt6a2MGMVCjig/KMLCVGCOwsN0vVJK62DziGv/jVHc8/xYuFFc7fcA9VPehGQb2AX8BPL+9L1WSuspK4D8B+6n2GP5dHOxdW/OA9VT7ARomBo/cTsxX4OUBSXqu6cTc+nfS3kl8xlt+AMxt6ytW282ifQtBTKZsA/6YWM5YkpruHOBPiLn1qz4+5+Uf8cy/a0wDPk71H6piGSJ6Jz6IKVNSs/QB1xE9o2Xeuj2eciMO+OtK/wswQPUfsNHlALFW9RuJ0a6S1G1mAL9FzNh3kOqPu6PLMeDftO3VqyO8ghilX/WH7UTlaeBm4l5Xw4CkOusBLiXOqtu5Mt9Uy6+B17TpPVCHOR34BtV/6E5VdgJ/TSw80deWd0KS0uojBjx/hs5u9PPydaJNUINMI9ZzPkL1H8DxlEPAN4kxA8vb8H5I0mQtBz5EXNM/TPXHy/GUI8C/JdoCNdQLiHs9q/4wTrRsJNa8vhQHrEgq38XEhGfrKWcVvpTlXuDC9G+J6mga8IfExD1VfzAnU3YCnwPeRsx9IEmpzQPeThxrdlL9cW8yZS/Ri+pZv55jOXAb1X9Ip1IGgB8TMxBejYFA0uTMB95MHEvup/Nu15to+Qou5atxeCXwQ6r/wKYog8ADxCjc64BFCd8nSd1jLnAVcWlxPXCU6o9fKcoDwGUJ3yc1wDSiwdxG9R/g1IFgI3ATBgKpyUY3+Meo/viUsmwnuvsdI3UCXgc5tdnE3QL/nu68VWQI+DnRxfeTrGwigoKk7tBLDNp7RVYuAV5Ed65N8jSxkNCniJH+OgEDwPjNBd4PfBRYUnFd2m2ACAX3AQ9mZRORqiV1vmXA2qy8Bng1cTLTzfYAnwb+M7GKoE7BADBxc4APAP8HcHbFdSnTAeBfaAWCe4k1uiVVaynwcloN/v8InFlpjcqVN/x/SRynNE4GgMmbA/w+cANwXsV1qcp2oqdgAzGuYAOwGbvdpHboAy4iuvIvJrrwX0xzJwbbQgxu/iIx+ZAmyAAwdT3AFUQQeDO+pxD3CD9IhIJN2eNGoL/KSkk10QusIBr5tbQa/fPpzmv2E3Uf0fB/lRjDpEmysUprDREE3oVz9482ADxKq6cgf9yWPSc1zUzgXOCFRAOfP64mVs5TyxHgVmJg388rrkvXMAC0xwIiBHwIeFnFdamDvbR6CrYWymM4mEf1NosYkLcqKxcTZ/SriLN8V/w8uU3E6qifI0b3KyEDQPutBa4H3kt33kbYbnsZGQqK5XG8M0HVW0SrgR9dVuJxdqIOEGf7XyLmJ1Cb+MEszxxiHu33AG/A5J/CISIIPEGMO9gO7MjK9mzbk5XVTnU3jbjldykx0G559vXzsscVRAM/p6oKdpEB4NvALcTyvA7qK4EBoBqnE+tlvw+4Ev8O7XSM6DrcQQSCsR5/SSwEpebIu+aXEY35WI/Px8a93R4kzvRvxbBeOhue6q0E3g28gxgv4N+kGgeIA9AzRGB4uvB1cduewraDldRUo80FFhPB+szscXFh2+JR25bgIllVGSYa/duIRn9bpbVpOBubzrKCWNL37cBr8ZafTneUsQPDHqJH4QAREg5lX+8vfP8sreWnm2wasJBokOcSZ9wLiJXo8u/nE9fZFzN2w35a6bXWRAwBPwC+RnTvP1FtdZQzAHSuM4C3AG8lLhPYFdmdjhDzIzxLrL+wjzhg7ieuix7Mnj9ChIXipYq9ha+LYeIAp74/uvjv80b4ZHppnTX3EI10rrig1MJsf7OJhnle9rMLiUC7gLjFbS7RDe/tst3pEHA38A3gmziCvyMZAOqhl1ii+Bpi9a611VZHkp5jK9Ho30EM6DtabXV0KgaAeloFrMvKZcTZlCSV6SBwD3BXVlwbpGYMAPU3nZiB8KqsXEp0rUpSSoPAz4iz/LuJ6/rHKq2RpsQA0H1mEUt/XgG8nlglzEFSkiaqH3iAOMv/HvAjXM+jqxgAul8v8BKiZ+A1wOXEAENJKjoA3E8strM+Kzb4XcwA0DzTiLnIXwO8CrgEuIAY2S2pGYaAR4gG/0dEo78Zb0ttFAOAIAYRriHuLsjLRZXWSFJK+RLdeVnPyNtI1UAGAJ3I2cT4gTVZeSlx94GkzjVM3I73MPDTrDyA0+xqDAYATcQCWmFgDTG24CJiXXNJ5TpKdNvnDf3DxCh9l9DWuBgANFW9xBTG+TrnxUdvR5SmbhD4NbAJ2Fh43ICT7WgKDABql5nAauBC4PxCWc3IaWQlhf3Ao8AWYoDeFqKx30JMCy0lZQBQFc5mZCA4Dzg3K4YDdbN9xAp424DHiMY9b/C9Tq9SGQDUafqI9dhXjVHOw4CgztYP7CAG4o0uO7PnpI5gAFDdnEGrt2Bl4etzibEIrougdjpIXI9/nNaZfLHsqaRW0iQYANRtZhFrxC8FlhUeF43atoIYwChB3BOfn6HvzL7fMWrbbxi5HLNUawYANVUPcBawBFiefb0s+/5soqdhUaF46aFe9hGNeF72ENfYdxEN+m6iQd+dlePVVFOqjgFAGr8+RoaC8ZaziFUbNTH9jGzEx1uewlHz0ikZAKRy9BGXJ+YDM4gehVnZ9nnZtoXEyo2zibEMM4gAMROYk5V80qX8+aLi87nZPHc1yLwuRf3AkVHbjgKHR207BhwatW2AuDZefP5Q9vXewvOHs33uy7Y9m/3OfuIWuAFiQZqx6iIpsf8f2GKUl03njBMAAAAASUVORK5CYII=" vertex="1" parent="1">
          <mxGeometry x="470" y="200" width="42" height="42" as="geometry" />
        </mxCell>
        <mxCell id="z-h519-FT7M5sTP4B4l5-8" style="rounded=0;orthogonalLoop=1;jettySize=auto;html=1;exitX=0.5;exitY=0;exitDx=0;exitDy=0;entryX=0;entryY=0.5;entryDx=0;entryDy=0;endArrow=none;endFill=0;strokeWidth=2;" edge="1" parent="1" source="z-h519-FT7M5sTP4B4l5-3" target="z-h519-FT7M5sTP4B4l5-6">
          <mxGeometry relative="1" as="geometry" />
        </mxCell>
        <mxCell id="z-h519-FT7M5sTP4B4l5-9" style="edgeStyle=none;shape=connector;rounded=0;orthogonalLoop=1;jettySize=auto;html=1;exitX=0.5;exitY=1;exitDx=0;exitDy=0;entryX=0;entryY=0.5;entryDx=0;entryDy=0;labelBackgroundColor=default;strokeColor=default;strokeWidth=2;align=center;verticalAlign=middle;fontFamily=Helvetica;fontSize=11;fontColor=default;endArrow=none;endFill=0;" edge="1" parent="1" source="z-h519-FT7M5sTP4B4l5-3" target="z-h519-FT7M5sTP4B4l5-5">
          <mxGeometry relative="1" as="geometry" />
        </mxCell>
        <mxCell id="z-h519-FT7M5sTP4B4l5-3" value="" style="shape=image;verticalLabelPosition=bottom;verticalAlign=top;imageAspect=0;aspect=fixed;image=data:image/png,iVBORw0KGgoAAAANSUhEUgAAAgAAAAIACAYAAAD0eNT6AAAACXBIWXMAAA7DAAAOwwHHb6hkAAAAGXRFWHRTb2Z0d2FyZQB3d3cuaW5rc2NhcGUub3Jnm+48GgAAIABJREFUeJzt3Xe4XVWd//H3TU+ABAiht1AjoEgRkSZFEJSm2AALI4KIImJ3dBSVUWbAyoCIA1awjChKGRREpGiQjvRO6JBAEkJ6cn5/rHsn9xdvkrv22Xutfc5+v55nPzo+5+Z89tpnzlpn77XWFyRJkiRJkiRJkiRJkiRJkiRJkiRJkiRJkiRJkiRJkiRJkiRJkiRJkiRJkiRJkiRJkiRJkiRJkiRJkiRJkiRJkiRJkiRJkiRJkiRJkiRJkiRJkiRJkiRJkiRJkiRJkiRJkiRJkiRJkiRJkiRJkiRJkiRJkiRJkiRJkiRJkiRJkiRJkiRJkiRJkiRJkiRJkiRJkiRJkiRJkiRJkiRJkiRJkiRJkiRJkiRJkiRJkiRJkiSpdnpyB2iIscAqwChgVWB0739fLWcoSaqBF4G5wBxgeu9/fwmYmTNUEzgAKM/qwI7ApsAm/Y6JwLiMuSSpE80AHu49Hun9z4eAm4AXMubqGg4AihkKTAJ2AHYFduv9v4fkDCVJDfE0cB1wPXAzcAOwIGuiDuQAYPBGA28ADgQOBdbMG0eS1OtF4ErgEuAifHwwKA4Alm814K3AIcC+hOf2kqT6mgtcAfwOuJAwr0ADcAAwsB2AY4EjgZUyZ5EkFTMP+D1wDuEOgfpxALDEKOAg4GPALpmzSJLKdQvwfeACYFbmLLXgACD8wv8A8DlgrcxZJEnVegE4A/gmDZ8r0OQBwAjgKOBkYJ2sSSRJqU0FTge+S9iDoHGaOAAYCnwQ+DywbuYskqS8ngJOIcwTWJQ5S1JNGwBsB5wN7JQ7iCSpVm4DjiPsKdAITdm4ZiXgVOBG7PwlSf/s1cBfCRMFx2bOkkQT7gC8lTDhw9v9kqTBeBL4MGEvga7VzQOAUcC3Cc/7U5sG3Afc2/uf9wPP9f7v0wjPmWYAizNkk6Q6WYVwl3ZlQt2UVQi/wLcEtug9JpFn99WzgE8QNhdSh9iS8DynleBYAEwGvg7sB4xPcH6S1DSrAnsBXyHUAZhPmu/4WwmDEHWAIwmlJKv8QDwJfItQF6ARz4okqWZWBvYHTgOmUO13/kzgiDSnpSKGEtZzVvUBeBn4KfDG3veSJNXDEGBv4IeEzrqqfuA7NGfyfMcYDfyG6m7/HEV4LiVJqrcxhDvBN1BNn3Ahoc9RDawOXEv5F/lm4O1090RJSepmuwEXU37/MBmYkPA8NIBNCbPsy7ywVxImmkiSusOuwGWU21fcA0xMeRJaYlPCZLyyLuZDhEl9kqTutCdwF+X1G08Am6Q8AcEGwMOUcwHnEyZ2rJT0DCRJOQwHTqS81WKPARslPYMGWwd4gHIu3B+BzdPGlyTVwMaUNz/gPmDtpOkbaA3gTtq/WAsIZYBdziFJzfZeYDbt9yt34EZwlRlNKObT7kV6FNg5bXRJUo1tDzxI+/3LZMI29CrZebR/cX5HWDYoSVJ/qwA/p/1+5iepg3e7T9L+RTkF1/RLkpbv84RCbe30NycmT92l9gUWUvxCLCZUc5IkaTDeR5grVrTfWUioU6A2bAq8QPGLMBd4Z/LUkqROdwjtTQ6cSlhpoAKGAtdTvPFnAfskTy1J6ha7A9Mp3g9dg6vNCvkMxRt9Pt5+kSS1b2dCNdii/dHH00fubK8A5lCssRfhbX9JUnkOovicgLnA1ukjd6ZhwN8pPtr6WPrIkqQu9x6Krw64mbAFsVbgCxTv/L+cIa8kqRk+T/H+6XMZ8naU9QiT94o07qW4zl+SVK0LKNZHzSYUstMy/IRiDTuFUCdAkqQqrUIo/lOkrzo3Q96OsB1hAl9sg84Hds2QV5LUTDsQJvfF9leLev9WS7mSYiOqk3KElSQ12kcp1mf9OUfYOjuUYg15JT73lyTlcSnF+q4Dc4RdWl06z8nAayP/Zj6wLXBv+XEkqWuMI2xJuyEwgbDUeiRhc5uXCFvWPkSYS6U4GwF3AStF/t2NwE7lx+k8e1JsBPWVDFklqe42BY4DfkXo2Ae7dn0WcAPwn8ABxHdqTfVvFOvDnLsGXEx8wz0IjM4RVpJqaALwKeAWinVGAx0vAz8D3kiozaKBjSDciY5t39/mCFsnkyi2s5L7/EsSbA6cR/Gt02N+dH2A0Nnpn+1HfJsuArbIEbYuziG+0f6cJakk1ceahO/PdmrWFzmmAIcnOL9OdDnx7fm9LElrYCzFai1b4ldSkx0NTCNtx7/0cSUN//U6gN2Jb8eXCRsLNc5RxDfW33IElaQaWAO4iLwdf/9jNuGxgJa4hvh2fHeWpJn9kfiGOiBLUknK61XAo+Tv9Ac6foCV7vq8kfj2uyxL0ozWBhYS10g3U599CyQplf2AmeTv6Jd3XI7LBvvElrNfQJjT0RgnEv8BOzpLUknK50CK7Tmf45hM2HSo6d5NfNt9JEvSTCYT1zgvEyYNSlJTvJ7O6fz7jquBURW0RSdZibDDYky7XZ8laQbjia/699MsSSUpj62BF8nfoRc5fo2Pa39EXJstIkNJ+xy7Ox0IvCPybz4BPFxBFkmqm1UIy+zWL/HfnAXcTdjq9xrCnKrbgWcJE/hWLfG9tiJsTNSYX7UDeAl4b8TrewjX5p5q4tTHWcSNjJ7AbSglNccFlPNL/BHgFGAPVjxLfyzhh9mvCI9c233vBTR7r/shhE2TYtrsjCxJE7uHuEb5Tp6YkpRc0dLo/Y8bgbdR/IfT6sBXgRlt5niIZtds+QZx7XV3npjprEP8h+igLEklKa2VgScp3uHOAD5M+PVZhtUJxYDaGQQ0uWrrm4lvr/WyJE3kCOJvI7msRFITnEzxjvY2YIOKch1O8bsBc4FNKspVd6sA84lrryOyJE3kNOIaw61/JTXBeOKXjvUd/0v1+8nvSPH6Az+oOFud/ZW4tvrPPDHTuIy4xvhqnpiSlNS/UaxzvZJ02/C+CphaIOM8YMNEGevmFOLa6pI8MdN4lLjGsPKfpG43grAcL7ZjvZNyl+8Nxn7E7+PSItz9baK9iWunR/LErN7KwGLiGqNR+yNLaqQiM//nAlvmCEuxuxVP0czl3KsT106LCX1l13ktcQ0xLU9MSUrqN8R3qF/MkjQYRliyFpt5/xxha+B54tppxzwxq/UvxDXCdXliSlIyIwm79MV8Nz5MeGyQ05uIHwB8P0vS/K4lrp1idhBsS1nrRQcjdn1j12+JKKnx9iC+jO53CcvLcrqMUPY2xt5VBOkA90e+ft1KUgwg5QBgfOTr760khSTVx26Rr58JnFdFkAL+O/L1m9HM1QD3Rb4+WVGgYaneiPiTeqiSFN1hDeB4YF/C7ortVN6aQ3iedz7we8ItqDrYGzgKeDXxv5D6q+v5SQCviXz95YRBQB38krBVe8x2vzsS9shvkgciX5+8KmAKlxP3HOR1eWLW3gHAdOKfvw3muJz0y4qWNpJQ/rlbz0/qL7ZgzPvzxFymq4nL/7ksKfPahbg26sq9AG4irhE2yxOz1l5HWP5TRefYd/yJvMt1qur863J+Up+RxK+pn5gl6bJ9jbj8P84TM6stiWujyXliVuth4hphQp6YtdUD3Eq1nWPfkWwW6lJiN83otPOT+tuYuM/tPOo3eH07cedwRZ6YWU0gro0eTBUs5STA2PkGcypJ0bm2IzwPT+FfEr3P0o5K9D65zk/qL/Zx1BTCHYM6eS7y9WMrSVFvcyNfn2yQl3IAsDjy9bGN1u1Sdf6p3yvH++Y6P6m/2B3fXqgkRXumRr6+iQOAeZGvj+0rC6vzAKCdme3dKFXBD8i3yUiqVSm5N1GRIP47MeV3wGDF7kdQx3Oo2sLI17cqSTGAlAOA2JMaU0mKzhW7lKQdsRtXlCXVs69c5yf1F9t51nHgGvuLvomPdmMHPcke89T5DkA7a7+70bXA04ne638SvU+u9811flJ/sbf016d+d0Zjd3ityx4GKY2MfH1XPgKIvQ3SlRWR2rAA+GyC93mEsNVoDhcQlotWKef5Sf3FTqAbRxgE1MmkyNc/WUmKeovZKAm69A5AbHU/7wD8s58AJ1PdM6IpwIGE4iQ5LCKURr2zon8/9/lJ/c0ifhCwbRVB2hC7YVvTdgGE+G3wYydWFpZyAPBM5OtXqSRF5/sysA9hPe2Ckv7Np4HTCUsN7y7p3yzqSWBnQrnTR0r6N+t0flJ/sZ/HgytJUcxwYM/Iv6lqcF9nsQOA2EFhYSlrAcQOAOp2q6tO/tx7DAfWor3JQdOp3/Kil4Gv9h5jaW9v7Dqen9TnVuI60UMJdUBiH6lWYX/i9zK4tYogNbd25Otj+8rC6jwA2LySFN1lAfBE7hAVm0kzJw6pGa4DTop4/QTgIOC31cSJckzk66fTzDsAW0S+PtVk71o/AnAAIKnb/YX4SV9fJP9qgG0J82liXE39djJMYcvI1z9bSYoBpBwAxM7+jB01SVKnmUZY4hvj1cBhFWSJcTrxg5CLqwjSAWL7sqcqSZHZRsQVRJieJ6YkJfVh4gtaPU2+gmnvHmTG/sdcmluK+0Xi2qor57/1EN8Q62ZJKknprArMJr5T/R3pHwVsQZiTE5v1F4lz1sVaxLVTV09Yvoa4xnhHnpiSlNS5xHeqLeC0hBknELbRLpJzl4Q56+TNxLXTn/PETOO/iGuMM/PElKSktiAs7SvSuX45Qb61gFsK5rs+Qb66Op24tvp2nphpHEtcYzRxyYikZvopxTrYFvAj4recHaxXAQ+1kW2vinJ1gthB09F5YqaxA3GNsZh8E10kKaUNCJtgFe1ob6XcrYKHAh+h2PyEvqOpM/8h7AC4iLj2enWWpIkMIexzHNMgb8uSVJLS+xzFO9sW4THCOcTvPre0/YGb28wyG5jYZo5Odhhx7fUcaZfmZ/FL4hrlp3liSlJyw4DJtNfxtoB5wK+BNzH4crTrAh+l+LP+pY8TizRAFzmbuPb6eeqAOXaTOoYwQh2slwmjWSu4SWqCzYEbCeV/yzCPUGb7ZsLW4VMJ36fjCI9YJwE7AluV9H4AlxAKF7VK/Dc7yXDChj4xdUyOBs6rJk59bET8SPLwLEklKY/9KL4qIPdxL7Ba+U3SUQ4lvt02zJI0g9i1pE2eSCKpmU4gf2ceezyHdVwALiR+0NQYpxLXOPNprySsJHWiL5G/Ux/sMY1yVyF0qtUIWx/HtN2/Z0mayTbEf7g+kSWpJOX1acKS6Nwd/PKOp+nyJWwRPkR8+5U5/6Ij3EpcAz0BjMiSVJLyei8wh/wd/UDH3TR7uV9/Qwi382Pa76YsSTP7BPEftPdnSSpJ+e0IPEr+Dr//cQGwcoXn3GneSXwbfixL0szWIX6W6700YKMESVqGsRQvHFTmMQ14T8Xn2ml6iN88aQHtb9rUsS4l/oP3lixJJak+9gRuI33Hv5AwAGlsp7UcBxHfnr/PkrQm9ia+wW4h7FEtSU02FHg3cBdpOv5fAa9Mcmadpwe4gfh2fX2OsHVSZNvL47IklaT6GULYu/9CwpLpMjv+J4HTgM2SnU1nOpL4tv17lqQ1U2TSxDTcF0CSlrYqoTM6H3ic+O/WBYS7rP9BeMzg3dYVG0sYKMW2dfZCdzlqASxtKHAfsGnk330f7wRI0vKsT1hjviXhuf06LJm1Pw+YCTwPPETYofUOwnJDDd53Cbs2xniEsGPiovLjdJ7jiR89LQJ2yBFWkiRgO4rVbPhQjrB1NYL4+gAtwmZCozLklSQ1W9HSzfcRqgWqnyLVk1qE2y+SJKX0dYr1WQflCNsJrqBYg7o3gCQplf0Jj6Fj+6qrcoTtFK+mWKO+CGycPq4kqWHWI5Q9dt5aBYpuc3kdFguSJFVnGHANxfqoH2TI23FWBaZQrIF/jrUCJEnl6yF04kX6pieB1dJH7kz7Urz+9ZkZ8kqSuttXKdYnLQYOyJC3o51DscZuAZ/KkFeS1J2Oo3h/9L0MeTveKoTdkoqOuCxVKUlq19spNjm9BTxM6MtUwOsJe1MXafgFwNHpI0uSusQ7CVsmF+2Ddk8fubucRPFbL4uBk5MnliR1uo9Q/Jd/i/j6AFqGoksD+44zcHWAJGnFegg/HNvpc36SOnQ3G0WondzOBTkfGJk6uCSpYwyn/R+ck7FGTenWoVjN5f7HLYQSjJIk9bcBcD3t9TFPE0owqwI7ANNp7wLNAN6VOrgkqbYOAV6gvb7lRUJ5YFVoZ2Am7V2ovmc0YxJnlyTVxzDC8/52Jvu1gJdxxn8yewGzaX8QcDewd+LskqT8dgVup/1+ZDawZ9ro2heYS/sXrwVcDGyYNr4kKYPVge/Q/q/+FmGPgDenja8+BxJuvZQxCJgJfJIwC1SS1F2GAB8EplFOnzELO//sdgKepZwL2gIeBI7FJYOS1A2GAe8lPPItq594BnhNypPQsk0E7qG8i9siDCpOBsalOw1JUklGEDr++ym3b3gQl5PXznjaX8M50DEVOAXYIt2pSJIK2hj4AvAE5fcH1xL6GtXQaNorI7yi4wbgo8CaqU5IkrRC4wjF3/5CqAFTxff/2bjDX0d4J2HDn6oGAguAy4ATgW2xzoAkpTYJOB64kHKWhS/rmE4oCawOsint1w8Y7DGV8CE8gTAxxHkDklSelQi77L0f+Cntbwsfc9d3YoLzy6Ind4CKjQC+BnwMGJr4vZ8F7iVMQLmfsPRkFmG7yFm9x+zEmSSpjlYmfF+P7z0mAFsS5l5tQdinP6VFwLeAzwPzE793Mt0+AOjzauB7hG2EJUlalluADxHuIHe1pjy7vo2w7eP7CL/EJUnqbzrhbvFONKDzh/S3xXNqEfZ9/jGwNvBKmnMHRJI0sMWEeQUHA1cR+opGaModgP6eBd5DGAD8lPCsR5LULC3gEsLE7fcBz+WNk56/gGFr4DPAETTrjogkNVELuBT4EuF5f2M5AFhiX+AiYEzuIJKkSswGDgGuzB2kDpr4CGBpGxJKQ/4OO39J6mZjCLf9vw+snzlLdk2+AzAR+FdCsYgRmbNIktKaB5wHnApMyZwliyYOAMYAnyY893dfZ0lqtjnAdwlF32ZlzpJUkya99RD2c/494RnQsLxxJEk1MBzYjbASYCpwR9446TTlDsAk4Fxgl9xBJEm1dhXwAeCR3EGq1u0DgCGEin3/TigVnMMiQl3qqSypAfAyYdepWYTKgpLURMMJdQBWJRT8Wbn3WIMwSS/XXeqXgE8AP8j0/kl08wBgY+BHwOsTvd9i4E7CutL7CAWA7gUepIuLSUhSRUYCm7GkKNCWwPak3cX1UuAY4OlE76cSHAbMpPpSkXcDZ/a+3xpJzkySmm0N4G3AWcA9pCn3vl+SM1NbhhLK/y6mug/DbcDHgfUSnZMkadnWBz5JmLxX1ff+QsLqsW6+a97RVgcup5qL/xRhs6Adkp2NJCnW1oR1/U9TTV/wS8JcBdXIZoRn7WVf7DuAw2nWcklJ6nTDCPVd/kE1d4HXTXcqWp5tgCcp9wLfStgzwNs9ktS5eoCDgMmU20c8Amye8Dw0gD0Jy+nKuqi3EIoCSZK6yxsJv97L6i+eBrZNegb6PwcTtnAs40JOB07AW/2S1M2GEfaGmUE5fceLwK5Jz0DsQ3md/8VYFUqSmmRt4CeUs2JsBrBj2vjNtQthB712L9oThIGEJKmZ3kA5c8ieB7ZKnL1xXgW8QPsX60rCCFCS1GxrAJdRzo/KiYmzN8ZGwLO0d4EWAJ/F2f2SpCWGAJ8n9BHt9DEPAOMTZ+96KxGW5rVzYZ4ilHyUJGkgewDP0P4dZsvNl6QH+AXtXZCHCJsFSZK0PBMJxdza6XO+nTx1l/o32rsQNwFrJk8tSepUawE3017f84HkqbvM3sAi2rsVs0ry1JKkTjcW+BPF+5+5hInrKmA1YArFG/9iQj1pSZKKGAlcQvF+6A5gVPLUXeDnFG/0v2HFJklS+0YD11K8P/pm+sid7d0Ub+w7CaWBJUkqwziK1xFYDByQPnJnWpPim/08CqyXPLEkqdutDzxGsb7pMbwrPSg/pFgDTwe2zJBXktQMrwBmUqyP+nqGvB1lV4oXZzg8Q15JUrO8g2J91DxgUoa8HWEoxXf7OyNDXklSM51Nsb7qihxhO8HxFGvQm3G5nyQpnVEUnxT4lgx5a200xUoyzsAtfiVJ6W0BvER8v3UHofiQep1EsZHUR3KElSSJ4n3XO3OEXVodyuKOBh4E1o38u1uAnQhbBUuS/tkwwuqoTYANCXuk9C1HmwPMAqYRvoPvBaZmyNjJhhLqzbw68u/uB7bC/otPEj96WgS8NkdYSaqxocBewNeAyYROPua79Rngl8AHCVXxtGK7UGz12pE5wtbJMOBx4hvu7BxhJammtiGshmq3ln3/YzFwHXAsoTCOlu1c4tv31ixJa+Qw4httGm71K0kAexCqnhbdP2Wwx4vAV4E10pxWx1mD0Eax7bprjrB1cTXxDfbFHEElqUYmAZdTbac/0PES8FlgePWn2HG+Qnx7XpAlaQ1sTfyodSahTLAkNdFw4MuEWvOpO//+x93A7hWfa6dZnfhtgufT0Po1ZxD/oTs1S1JJym8z4Abydvz9j4XAF3BNe3+nEd+O/5olaUZDgKeIa6Q5wDo5wkpSZvtQvEpq1cflOEmwz9rAbOLa7x9Zkma0F/Efsv/KklSS8nov4VZx7o5+ecctwFpVNUCHOYv49ts6S9JMihRSiN1oQZI63bGEfU9yd/CDOR4gfkO3brQD8W33lSxJMxgGPEtc49yZJakk5fMOOqfz7/9d7TLtcFs/pt3uyxMzvd2I/1B9KktSScpjN/LP9C96XAOMKL9JOspniG+3SalDDkv9hsAbIl+/GPh5FUEkqYbWBn5FuWXOHwDuAR4Bnu7931YBxhOeP29Neb/cdyes2Pp4Sf9eJ/oZ8O+ErZkHa29CPYaudg1xo6I/5IkpScn1AFdQzi/x64BjgI0G+b6vJSxjm1LCey8GDinYBt3iSuLa7MI8MdNZCZhHXKNY8ldSU3yA9jvf3wCvaSPDcMLA4dE2czwDrNpGjk73MeLa60Xi7hh0nP2J/xBtlSWpJKVVdD/5vuMx4MAS84wgVBVc2EamM0vM02leSXx77ZglaSInEz+C7MkRVJIS+w7FO9o/UN1mPHsATxbMtRB4VUW56q6H+OqMH86SNJHfEtcYjS2UIKlR1if+8Wjf8d9UX5xnU8IEwiL5flVxtjr7JXFtdU6emGnEfoCOyRNTkpI6nWKd6wWku0u6AcXmBSwCXpEoY90cR1xb/T1PzOqNI776X/J1kZKU2BhgOvEd6zWUu1RwMHYk1GWJzfq9xDnrYivi2mk2eZbnVy52A6D5dGlDSFI/7ya+Q51Ovm13Y3/VtgiFjFIPVupgOLCAuLbqyroA/0JcI9yTJ6YkJXU58R3q8VmSBj3A5GXkWt5xWI6wNXA/ce10cKpgKes4rx/5+sbsjSypsVYG9oz8mzsJBdVyaQEn9f5njGQdW83E9mUbVJJiAA4AJCmfvYi/Nf5twnyqnP4GXBX5N3tXEaQDxPZlsX1lYQ4AJCmfXSJf/zxwfhVBCjg38vXrA1tUEaTmvAMArBf5+icqSdEdJhHW/k4hfoLJ0scswvO8E6jPJJ2hwFHA1RSbHV3385P6xG7ZexmhSmAd/BaYGfk321URpOYejXx9sjsAKcUWmHhdnpi1937CCol2OsVlHbcSP1Ar26qEW4vden5Sf08R9xk+Ik/MZfoDcfm/mCdmVtsT10a354lZreeJa4Rt8sSstTcTNtWoonPs30nm+qXcQ/wXSiedn9TfaOL3Rqnbr8MvEZe/Lo8vUtqQuDZ6IE/Mar1EXCNsnCVlfQ0BHqTazrHvyFWB8dCIjJ14flJ/mxD3uZ1D/WqjvIW4c/hTnphZrUZcGz2VKljKOQCjI18f+2yp272OsB93Ckcmep+lpbq9mev8pP5iS+U+Sugg6mRq5OtXqSRFvc2LfH1sX1lYqgHACOLrHM+qIkgHS1kWOdfjl1Q7YPl4SXUwJvL1dfxRFDsAGFdJinqLHQCsVEmKAaS8A6D2pBz551pjnOocc6+hliD+c1h1xb8iFkW+3j6nRlJdjPnEf1BWriJIB7u7S98rx/vmOj+pv9hfhqMqSdGe2F/0sytJUW+xk45friTFAFKOxuZEvn5sJSk612TCJMAUcs3UTfW+TZyJrPqZFvn6DanfL+gNI18/o5IU9RY7AIjtKzuCywDb9ybSLAMckeqEltJDscIonXJ+Un9jiP/8bpIl6bJ9gbj8F+SJmdXGxLVRsmWAdb4D0MTZoityGXAM4ZFKFW4DDqzw31+RFvAu4vcYH6zc5yf1Nxt4MvJvtq8iSBt2jXz9lEpS1Nv4yNd35WOS24gbBe2XJ2ZH2BI4h7AsqN2tgF8C/kpYG1+XX8ZDgPcCfwZepPvOT+pzBXGf55/liTmg0YTVWjH567aTYQr7EddGV2dJWbFLiGuEo/PElKRkvk7c9+IM6rOT5eHED8hfkSVpXscS10Y/SRUs5SOAxyNf38SqUZKa5brI148lPCargw9Gvv454N4qgtRcbF+WrBBeygFA7LOuLStJIUn1cS3xywG/AAyrIEuM3YHXR/7Nnwi/cJsmti/rygFA7B0ABwCSut1M4vfH34xQFTSXocA3C/zd78oO0iFi+7LYvrIj7Ebcc5D55B/lSlLV3kf8s/QZwMQcYYGTBplx6cm4sVsfd4PhxE/UTrntezJjiS99OSlLUklKZwwwnfhO9TrS/0jaifDIIjbrDxLnrIutiWun2XTxD9+HiGuMY/LElKSkvkV8p9oi7GoZW2itqE2BZwrmfFWijHXzIeLa6YY8MdP4DXGN0cRdoyQ1z3rAXIp1rudS/SBgS5aUI449Lq04W539iri2+n6emGl8ibjGeJawPawkdbszKNbBtggbCk2oKNd+xG/l3ncspn67F6bSQ+jDYtrr+CxJE3kj8R+gVDXiJSmn8YQCQUUHAVMI9ULKshJwOu3VH/n/nkQXAAAaH0lEQVRxiXk6zauIb68dsiRNZAzxt7lOyJJUktI7huKdbd/xB2C7NjKMIGzy83ibOV4A1mwjR6eLXS0xjfpVeyzdX4hrlD/miSlJyfUQin61OwhoATcSJqENpmTvUGBn4BvA0yW9f112LMylb+OjwR6/Th0wx3KDq4A9Il6/D7A+CXdHkqRMWoRNfm4iTAxsx469B4SdWP8OPEX4pTmbcIt/TcIEv+2AcW2+X3/nAb8o8d/rNOtRbKfErhe7IVAL+HSWpJKUx84UXxWQ+/gbMKr8JukonyW+3Rqx++1Q4mdG3pUlqSTl8zZgIfk79JjjQWCtKhqjw/yDuHZrVJGk7xH/wWpnUoskdaKjaW8WfsrjUQY336Db7Uh8252cI2guexLfQGfmCCpJmR1OqI2Su4Nf3nE3sFFVDdBhivzA7cr9/5dlCGFSSkwDzQHWyRFWkjLbB5hK/o5+oONqYPXKzryzrE2YYBnTfrdnSZrZd4j/oP1nlqSSlN9EwtK+3B1+37EYOJUuLl5TwDeIb8fPZUma2SuIrw44C1gjR1hJqoFhwBcpVpGvzONB4pe5dbvxhLLHMe04jwZPmozdKKFFwyZLSNIAtiAU2Und8b9EGICMqf4UO84pxLfnT7MkrYm3EN9gLxBGWpLUdLsDl1N9xz8TOI3wjFv/bAIwnfh2fV2OsHUxFHiE+EY7J0dYSaqpVwDfAp6h3I7/BuAjwKrpTqUj/ZD4tr0lS9Ka+TjxDbeIho+cJGkAQwi7rX4NuJb43QSfBC4ilKWdmDh7p9qN+PlsLeCIHGH768kdgLBl5IPE73v9D0Kd6YWlJ5Kk7jAM2ASYBKxL2Pu/7/n9QsKt/WcJm/jcTygEpMEbRqjbsG3k390NvJIwcGi8Eyl2e8pSwZKkXIrcwW4Bb88Rtq5GUaz29Exg8wx5JUnNNon4ZX8twsY/QzLkrbXjKDaSuhUrT0mS0hkN3EGxPuvgDHlrbyhhVmSRBj0rQ15JUjP9gGJ91R9zhO0Ur6F45asjM+SVJDXLOynWR80DtsyQt6OcR7HGnUFYCytJUhW2pthz/xZhaaZWYAJht78iDfwYsH76yJKkLrcBxSar9/VNK6WP3JkOo1gjt4C7sDSlJKk84wlr94v0SYsI5ZwV4XyKDwIm42hLktS+0cB1FO+PTk8fufOtSrhtUrTRLwFGJk8tSeoWI2mv6uLt2A8VtifFVwW0COWGx6YOLUnqeGOBqyje/8wBtkmeust8luIXoEXYrGHd5KklSZ1qbYrvS9N3vD956i7UA1xAexfiYdwyWJK0YhMJhZHa6XN87l+iMcDNtHdBngb2SB1cktQx9iJUR2ynr/kDYWdblWgDQifezoVZAHweCzFIkpYYAnyRUCK5nT7mPmC1xNkb45XANNq7QC3CxI51EmeXJNXPBOBy2u9XngA2Thu9eXam+FaM/Y8ngX0TZ5ck1ccbaf/Ocovw2MB9/hPZm7DEot2L1gIuJjxekCQ1wzrATyinD5kO7JA2vt4MzKacCzgD+BgwLOkZSJJSGgZ8HJhJOX3HC4S70spgd+BFyrmQLeA2wi0hSVJ3OYCwL0xZ/cVThHlpymhrwuSLsi5q30DgvbiUQ5I6WQ9wEHAD5fYRDwObJTwPLcemwAOUe4FbwD+AI/DRgCR1kmHAkcCdlN8v3IqryGpnLPBbyr/YLWAq8H1gt2RnI0mKtTVwKuXM7B/o+DlWmq2tIcBXgcVUc/FbhGdIn8SVA5JUBxsCnybcsa3qe38B8IlUJ6T2HEpYmlHVh6HvuBc4C3g7YTMJSVK1JgDvAM4m7LxX9ff8c4Sl512nJ3eACm0I/JB0F65FeN50C+FDeX+/Y16iDJLULUYCW/QeW/Ye2xFK7Kbqu34PHEvY6KfrdPMAAML5fYTwTGhMpgyLgceBZwjbGL9A2L8Awv4DizPlkqTchgDjev/7SoR99McTJtmtT766LTMJe8P8MNP7J9HtA4A+WwDn4iQ+SdLyXQEcAzyWO0jVmlIV737CpkEH04CLKkmK9gTwPmA/GtJPNG2jm/uBcwglH18LDM8bR5KU2Wzga8A7gZszZ0mqaQMACMs5rgZ+RpgX8Eqa2Q6S1GRzCfu7vIsw2W9h3jjpNWUOwPKsBZwEnEC+iYKSpDTmAT8m7BnzROYsWTkAWGJf4CIcBEhSt5oNHAJcmTtIHTRlEuDybEOoC/2/2PlLUjcbA/wRuBjYIXOW7Jp8B+CVwKcIBSMcCElSs7SAS4GTadjkvz5NHACsA3yDMPGjiecvSVqiBVxAqPHyTOYsSTVp9vsQwuYOvwN2xM5fkhT6glcR+oc5wE2EQUHXa0onuD3wPWCn3EEkSbV2G/AhYHLuIFXr9gHASEIdgI+S9jl/C5hC2HiorzDQDGAWYY/pmcDLhNGmJDXZaEIdgLGEugArAWuwpBDQFsB6iTMtBr4DfBaYn/i9VYLNCRM7qi4V2dfZ/5iwjeS2hA+0JKkcqxBm7R8P/A+hRG+K7/abgM0SnJ9KdCThV3ZVH4pZwC8JZSI3T3ROkqSgh7CE+6OEmfzzqe77fgZweJrTUjvGAOdRzYdgEfAnwq/8lVOdkCRphSYQdnOdTHUDgf/Gu7u1NYFqLv5jwOeADdKdiiSpoC2AU4CplN8f/JUwP0E1sglhsl2ZF/ph4ERgVMLzkCSVYyXCd/jjlNs3PEQYZKgGdqbcCSF3EJ73NGmPBEnqViMJa/wfoLx+4jlCSXlldDBhOV1ZF/Qoun9ppCQ10XDgE5Q3Qfxl4KCkZ6D/80ZCPed2L+JiQjEgn+tIUvdbh/Cdv5j2+4/5wIFp4+sNhE102r14N+HugJLURHsBd9N+PzIH2Cdx9sbaBXiJ9n/1f4dwS0iS1EyjCH1BGY8D9kicvXF2ImzK0M6Feh44IHVwSVJtvYv2+5bphEJzqsCGwLO0d4FuADZOnFuSVH8b0/5eMs/gnjGlG037+/qfBQxLHVyS1DFGAufTXl9zI+4YWKoLaO+CnJo+siSpA/UAp9Fen/Oz5Km71KcpfhEWAyeljyxJ6nAn0t5SwY+nj9xd9gYWUqzx5wJvTx9ZktQljgYWUKwPWgjsmTxxlxhHKMRTtOHfmj6yJKnLvIfidwIeBcYmT9wFfkjxWy8nZMgrSepOn6J4f/TfGfJ2tIMo3thfyJBXktTdvkHxfunNGfJ2pPHA0xRr5LMy5JUkdb8e4McU65ueIvRtWoEfUayBrwSGpI8rSWqIEcD1FOujzsuQt6NsBywivmGfIVR4kiSpShsAU4nvpxbhVsHL9ReKNeq+OcJKkhrpQIqtDLg6Q9aOcBjFbqucnCGrJKnZzqRYn3VojrB1NgJ4gPiGvBYYmiGvJKnZRgG3Ed9v3U/o89Trw8Q34nxgmxxhJUkCXkOxeWvH5wi7tJ7cAQi/4O8DNo38u9MJmzNIkgY2Dtie8P26IbAWYWe6vjunswhL1J4B7gHuJJRd1+CdAxwT+TePAFsQdq1ttMOJHz09DqycI6wk1dhIwqYzZwL3Umyi2kOE5dhvA1ZKmr4zrU6xVQHvyBG2bm4mvuHeliWpJNXTtoSN0F6g2MS0ZR2zCaVt90h3Kh2pyGPsG7MkrZE3UGzinyQJXg9cQbmd/vI6rIOpx6PjuhlKsQmBe+UIWxf/S3yD7Z8lqSTVx+bA70nT8Q/0I2y76k+x4xRZyn5JlqQ1sC5hAkRMY92Ko09JzTUM+Azh1nyOzr/vWAj8B2HOgYIhwF3Et+PaOcLmVqS84luzJJWk/NYm7CSXs+Nf+riDcDdCwdHEt+FJWZJmdjtxjXQ3FvuR1Ew7Epbr5e7wBzpeBA6o7tQ7ynDgMeLa7+YsSTN6JfEfsmOzJJWkvA4grNfP3dEv71gAHFlVA3SYTxDffltnSZrJfxDXOHOAVbMklaR8DgDmkr+DH8yxCHh/Nc3QUSYQdqqNabuvZUmaSey+/7/ME1OSstmd8OMnd8cecyzEuVoQZvfHtNt9eWKmtzHxH6o35wgqSZlsAjxP/g69yDEH694fSXy7bZw65LDUbwjsF/n654A/VhFEkmpoJPAbYI2S/r0ZwHWEJWqPESbtLer998cDmwG7El+PZVlGARcCOxC2yG2iiwjzNmK2rN8HOLeaOPXxK+JGRWfkiSlJWXyb9n+FvwScTXiMMNiS6esCHyesuCrjTsCvC5199zifuPb6RZ6Y6QwhvmjCIVmSSlJ6u1KsvGzfMRv4CqFATTv2J35Tm4GOd7WZo5O9g7i2eo4uX+q+I3ENshBn/0tqhmHAPyje2V4FTCw5z8dobxXCkzS3cutaxFdj7Ootlo8jrjH+niemJCX3AYp3tF9l8Lf6Y+0ETGkzW1PdQ1xbfSBPzDTOJK4x/iNPTElKaiTFOtlFhB9WVVubsFStyABgBrBagox1dDZxbfXdPDHTuJa4xrDyn6QmeB/FOtePJcy4AfBowZxfSJizTg4nrp2uzpIygR7C8pOYxpiQJakkpXUT8Z3q2RlybkOxzYmmUN0jijpbj7h2eiFPzOptTFxDTMuSUpLS2ob4DvUuYHSOsMCJg8y49NHUgkHTiWunDVMFS7nkYKvI1zdma0RJjRa7VK4FfIjwSzyH7wLXF/i7d5QdpEM8EPn62L6ysJQDgPUiX+8AQFITHBT5+t8D11QRZJBawBcL/N2BNPMxwIORr4/tKwtLOQBYO/L1DgAkdbu1CeXRY9RhddRVhEndMdYAtq0gS93F3gGI7SsLS1kLYK3I18c2WhONANbs/c+iZlDv+RbjCPuVF1X381Oz7UKYID1YdwJ/qyhLrHMJWw3H2BW4pYIsdXZ/5Otj+8qO8GviJkLsmSVlZ9gbuAJYQLHJOEsfTwOn015HW6aVgS8Bj9Cd5yf1+Qpxn+XP54k5oNWJr3v/oxxBM3s9cW30qzwxq3U9cY2wQ56Ytfcl4reXHOwxBdg63akMaD3Cr5xuPT+pv98Q9xneOU/MZfozcfnrcvcipdgt8P+SJ2a1YrdE3DJPzFp7H9V0jP2PR4BVUp3QUoZSbD10p5yftLQbGfxndz4wPE/MZYqtXPhcnphZTSKuje5MFSzlJMDY+QYzK0nRuYYDpyZ4n42BExK8z0COpPo7PxuT7/ykpcXM+H6Y8NivTu6KfP14mrcSYFbk65O1T8oBQOx7xTZat9uddLND357ofZb2tkTvk+v8pKXF3I16qrIUxT0e+fohNK/C68uRr0/WL6ccAMTMdIVQ11pLbJ7wvbZI+F79bZbofXKdn7S0URGvreOPovkF/ibl6rM68A5AgfeK+X+MJijy/2hFzUv4Xv2lur2Z6/ykpS2MeO3IylIUF5O/T8p+pw5iBzyxP5YLq/MAwIla/7/bE77XbQnfK8f75jo/aWkxvw7ruIy1SKaXSk9Rb+MiX9+VjwBiR4oOAP5/t/YeKfww0fvket9c5yctLWay85qVpShuo8jXLyT+mXinix0ALKokxQBSDgCmRr5+5UpSdK4WcDzV376+Eji/4vdYlquBn1T8HjnPT1pazMS+9alfifTYeTtPEb7LmiR2APB8JSkGUOcBgHcA/tlk4FDgxYr+/csIM/EXV/TvD8axVDcIqMP5Sf3F1DzpIWwdXCd7R74+tjBON4gdAMT2lYWlnI0Zux/76pWk6HyXE1YEfAjYF1iX9gZycwgbT5wPXNx2uvbNI2x4dB5wFLA97d0Nqtv5Sf3dG/n6fYDfVRGkgA2BV0T+zd1VBKm52GWPXVm75JvE7Yb0yTwxJSmZPYn7XpxKfVYDfIr4nTjfkyVpXp8hro1OSxUs5SOA2FGNWwFL6nZ/I9ylGqzxhMeAuQ0DPlLg764vO0gHmBT5+mSPAFIOAGJ3sXIAIKnbzQP+Gvk3/0b+zXTeSXgEEOM+wnbGTRM7AHi6khSZvZa42yDP5IkpSUkdT/yt9OOzJA3GAk8sI1ctbm3XzAvEtdOOeWJWa2Xiy9g2bc9oSc0znnAnIOa7cRrxa/DLcuYgMy59bJsjbGbrENdGi+niJfCPEtcYe2VJKUlpXUh8h3oj6bdMP5z4H3It4JbEOetiP+La6ZGU4VLvyRy7BMQBgKQmOL3A3+xI2NUy1XyA3Xrfr8he9d8uOUuniO3DYssrd5TTiBsNXZsnpiQldxXFbq1fCIyoONt+wPSC+R4Fhlecr65uJK6t/jNPzDSOIK4x5tPFz0MkqZ/dKXZ7vUXYRnuDinIdR6jUWSRXi2au/QdYjVD7IKatjsiSNJHYCREtYP8sSSUpvZ9SvKN9gfCMvqxyshMJ22cXzdMi/AJuWvnfPm8lvr3Wy5I0oXuIa5Aiz8YkqROtTfFb7X3HTcCb28iwIeFW9Mtt5pgPbNdGjk4Xu1qiEdskn0VcozwBDM2SVJLSexftdbx9x/3A14AdWPFEwXUJtTcupL3b/f2Pkwu3QOcbypLKh4M9zsiSNLG3E/9BcjWApCb5PuV0wn3HXOBWQgd/Xu+//2PgL4SlZ2W+Vwv4E83+4XYA8W32lixJExsPLCKuYc7LklSS8hhN2De/7I45xfEosFbpLdJZfkFcmy0i9I2NMJm4xpkJjMmSVJLyGAfcTv4OPeaYSvze991mVUKBp5h2a1SRpI8S/8E6MktSScpnA8Kz/Nwd+2A7/+2raYaOcizxbffhLEkzWYv49ZE3ZEkqSXmtCdxM/g5+eceTwDZVNUAH6SHMtYhpuwXAhBxhc/oD8R+yN2RJKkl5jQV+R/6OfqDjRhqwfn2QDia+/S7NkjSzo4hvqD/nCCpJNdADfJLylum1eywmrHUfXeVJd5i/E9+O786SNLOxwGziG2vXHGElqSZ2IGz2k7Pzfww4sOoT7TD7E9+Os2jwdvdF1rpeliWpJNXHUOAjwHOk7fhnAafgqqyBFFm2eVaWpDWxJfF7ArRwLoAkAawEfBx4mmo7/hcJ1VzXTHNaHecQ4tt0EbB5jrB1UmRiy/3AyBxhJamGRgCHAhcR9uAvo9NfRJh39QHCQEMDGwM8THz7/jpH2LrZg2Ifzn/NEVaSam4sYTb6dwnLBwdb1GcBcBfwI+C9hOqtWrFTKdaHvS5H2P7KKhvZrr8BO0f+zRxga8I+1pKkgQ0BNiKU912dsFPdKMKdgvmExwdPAA8RagZo8LYCbgOGR/7d9cBu5cfpTAdRbAR1cY6wkqTG6yEUUyrSd70pQ95au4JiDdmoLRQlSbXwWYr1WX/KEbbutqXYioC5hHWxkiSlsDPFJlsuwnoJy/RDio2oHiRUzpIkqUoTCHMmivRVP8iQt2OsS9hookjD/k+GvJKk5hgCXE6xPuolXFmxQp+nWOO2ev9WkqQqFF3y1yLMGdAKDCOU/i3SwIsJm1ZIklSmD1O887+J+KWCjTWJYoWCWsBC4LD0kSVJXeoIik1SbxH2rNkqfeTO9kmKj7bmEHYYlCSpHW8A5lG8PzoxfeTONwS4luKNPh3YPXlqSVK32I/iE9NbhFoKQ5Kn7hITgWm0dyfg0OSpJUmd7kja++X/HGELZrVhH0KRiqIXYSHwweSpJUmd6kSKP/NvEfqsvZKn7lInUfxCtAirA1wiKElanh7gdNrrb1rACamDd7tzaf+i/BZYLXVwSVLtrQFcSvv9zI9TB2+CURTfH6D/8SDWDpAkLbEHxbf37X/8FRiZOHtjrAH8g/Yv0nzgM4TbPZKkZuohPO8vUthn6eMOYHza+M2zNnAf7V+sFuF2zyZp40uSauAVwNWU05fcA6yZNH2DrQ88TDkXbjZwMuERgySpu40hfOfPpZw+5DFc7pfcJpTzzKbvuJ+w6YMkqTsdBkyhvH5jCrBxyhPQEhOBeynvYrYIpR7dQVCSuscbaW9n2YGOu/GXf3arAddQ7oVtAdcBB+FEQUnqRD2E7/AyVo8tffyNMCldNTAK+DXlX+QW8Hfg3cBKyc5GklTUOEJZ+DJWjA10/A/OGaudIcC3qOaCt4CXgB8Rtia2uIMk1ccw4EDgF4QaMFX1A9/E7/9aOxyYSXUfgBbwOPAN4E3AymlOS5LUz2rAW4AzgWep9jt/BvCuNKeldm0O3EK1H4i+YwFwPXAKsDeweoLzk6SmWZPwo+s04CbaK9YTc9wMbJbg/JLr5gluowhFHT6c4b2nElYn3EdYXng/8Hzv/z6N8MGd2fufktRkwwl3UocTJtaNB9Yi/JCbBGzZe6yaOFcL+C/gU4SywF2nmwcAfQ4m3CJaP3cQSVJHmEL48XhJ7iBVGpo7QAL3Ad8nTBLZGSdwSJIGtpDwq/9twJ2Zs1SuCXcA+tsWOJswEJAkqc+twAeBG3MHSaVpv4ZvB3YDjiNsIyxJarbHCR3/jjSo84fm3QHobwRwFPAlYN28USRJiT1PWM79XcLeAY3T5AFAn5HA+4AvE0oNS5K611TCCrEzCNVgG8sBwBIjCSsGjgXekDmLJKlcNwPnAOcDL2fOUgsOAAa2PeGZ0BG4058kdaq5hL37v03YHE79OABYvnGErSYPAfYDxuSNI0lagdnAH4GLeo8ZeePUlwOAwRtDGAQcQigxOT5vHElSr6mETXsuInT+jZzUF8sBQHGbEJYU7gDsCmxH85ZVSlIODxNqsNwMXEdYw784a6IO5ACgPOMI60g3JQwO+o6JWCBIkmK9QOjoHwYe6f3PhwiFgLytXwIHAGms3HuMIRS0GN17rJYzlCTVwIuEW/ZzgOmEZ/izeg9JkiRJkiRJkiRJkiRJkiRJkiRJkiRJkiRJkiRJkiRJkiRJkiRJkiRJkiRJkiRJkiRJkiRJkiRJkiRJkiRJkiRJkiRJkiRJkiRJkiRJkiRJkiRJkiRJkiRJkiRJkiRJkiRJkiRJkiRJkiRJkiRJkiRJkiRJkiRJkiRJkiRJkiRJkiRJkiRJkiRJkiRJkiRJkiRJkiRJkiRJkiRJkiRJkiRJkiRJkiRJkiRJkiRJkiRJUrP8P/cMoh8+QBTNAAAAAElFTkSuQmCC" vertex="1" parent="1">
          <mxGeometry x="220" y="196" width="50" height="50" as="geometry" />
        </mxCell>
        <mxCell id="z-h519-FT7M5sTP4B4l5-5" value="" style="shape=image;verticalLabelPosition=bottom;verticalAlign=top;imageAspect=0;aspect=fixed;image=data:image/png,iVBORw0KGgoAAAANSUhEUgAAAgAAAAIACAYAAAD0eNT6AAAACXBIWXMAAA7DAAAOwwHHb6hkAAAAGXRFWHRTb2Z0d2FyZQB3d3cuaW5rc2NhcGUub3Jnm+48GgAAIABJREFUeJzt3Xe4XVWd//H3TU+ABAiht1AjoEgRkSZFEJSm2AALI4KIImJ3dBSVUWbAyoCIA1awjChKGRREpGiQjvRO6JBAEkJ6cn5/rHsn9xdvkrv22Xutfc5+v55nPzo+5+Z89tpnzlpn77XWFyRJkiRJkiRJkiRJkiRJkiRJkiRJkiRJkiRJkiRJkiRJkiRJkiRJkiRJkiRJkiRJkiRJkiRJkiRJkiRJkiRJkiRJkiRJkiRJkiRJkiRJkiRJkiRJkiRJkiRJkiRJkiRJkiRJkiRJkiRJkiRJkiRJkiRJkiRJkiRJkiRJkiRJkiRJkiRJkiRJkiRJkiRJkiRJkiRJkiRJkiRJkiRJkiRJkiRJkiRJkiRJkiRJkiRJkiSpdnpyB2iIscAqwChgVWB0739fLWcoSaqBF4G5wBxgeu9/fwmYmTNUEzgAKM/qwI7ApsAm/Y6JwLiMuSSpE80AHu49Hun9z4eAm4AXMubqGg4AihkKTAJ2AHYFduv9v4fkDCVJDfE0cB1wPXAzcAOwIGuiDuQAYPBGA28ADgQOBdbMG0eS1OtF4ErgEuAifHwwKA4Alm814K3AIcC+hOf2kqT6mgtcAfwOuJAwr0ADcAAwsB2AY4EjgZUyZ5EkFTMP+D1wDuEOgfpxALDEKOAg4GPALpmzSJLKdQvwfeACYFbmLLXgACD8wv8A8DlgrcxZJEnVegE4A/gmDZ8r0OQBwAjgKOBkYJ2sSSRJqU0FTge+S9iDoHGaOAAYCnwQ+DywbuYskqS8ngJOIcwTWJQ5S1JNGwBsB5wN7JQ7iCSpVm4DjiPsKdAITdm4ZiXgVOBG7PwlSf/s1cBfCRMFx2bOkkQT7gC8lTDhw9v9kqTBeBL4MGEvga7VzQOAUcC3Cc/7U5sG3Afc2/uf9wPP9f7v0wjPmWYAizNkk6Q6WYVwl3ZlQt2UVQi/wLcEtug9JpFn99WzgE8QNhdSh9iS8DynleBYAEwGvg7sB4xPcH6S1DSrAnsBXyHUAZhPmu/4WwmDEHWAIwmlJKv8QDwJfItQF6ARz4okqWZWBvYHTgOmUO13/kzgiDSnpSKGEtZzVvUBeBn4KfDG3veSJNXDEGBv4IeEzrqqfuA7NGfyfMcYDfyG6m7/HEV4LiVJqrcxhDvBN1BNn3Ahoc9RDawOXEv5F/lm4O1090RJSepmuwEXU37/MBmYkPA8NIBNCbPsy7ywVxImmkiSusOuwGWU21fcA0xMeRJaYlPCZLyyLuZDhEl9kqTutCdwF+X1G08Am6Q8AcEGwMOUcwHnEyZ2rJT0DCRJOQwHTqS81WKPARslPYMGWwd4gHIu3B+BzdPGlyTVwMaUNz/gPmDtpOkbaA3gTtq/WAsIZYBdziFJzfZeYDbt9yt34EZwlRlNKObT7kV6FNg5bXRJUo1tDzxI+/3LZMI29CrZebR/cX5HWDYoSVJ/qwA/p/1+5iepg3e7T9L+RTkF1/RLkpbv84RCbe30NycmT92l9gUWUvxCLCZUc5IkaTDeR5grVrTfWUioU6A2bAq8QPGLMBd4Z/LUkqROdwjtTQ6cSlhpoAKGAtdTvPFnAfskTy1J6ha7A9Mp3g9dg6vNCvkMxRt9Pt5+kSS1b2dCNdii/dHH00fubK8A5lCssRfhbX9JUnkOovicgLnA1ukjd6ZhwN8pPtr6WPrIkqQu9x6Krw64mbAFsVbgCxTv/L+cIa8kqRk+T/H+6XMZ8naU9QiT94o07qW4zl+SVK0LKNZHzSYUstMy/IRiDTuFUCdAkqQqrUIo/lOkrzo3Q96OsB1hAl9sg84Hds2QV5LUTDsQJvfF9leLev9WS7mSYiOqk3KElSQ12kcp1mf9OUfYOjuUYg15JT73lyTlcSnF+q4Dc4RdWl06z8nAayP/Zj6wLXBv+XEkqWuMI2xJuyEwgbDUeiRhc5uXCFvWPkSYS6U4GwF3AStF/t2NwE7lx+k8e1JsBPWVDFklqe42BY4DfkXo2Ae7dn0WcAPwn8ABxHdqTfVvFOvDnLsGXEx8wz0IjM4RVpJqaALwKeAWinVGAx0vAz8D3kiozaKBjSDciY5t39/mCFsnkyi2s5L7/EsSbA6cR/Gt02N+dH2A0Nnpn+1HfJsuArbIEbYuziG+0f6cJakk1ceahO/PdmrWFzmmAIcnOL9OdDnx7fm9LElrYCzFai1b4ldSkx0NTCNtx7/0cSUN//U6gN2Jb8eXCRsLNc5RxDfW33IElaQaWAO4iLwdf/9jNuGxgJa4hvh2fHeWpJn9kfiGOiBLUknK61XAo+Tv9Ac6foCV7vq8kfj2uyxL0ozWBhYS10g3U599CyQplf2AmeTv6Jd3XI7LBvvElrNfQJjT0RgnEv8BOzpLUknK50CK7Tmf45hM2HSo6d5NfNt9JEvSTCYT1zgvEyYNSlJTvJ7O6fz7jquBURW0RSdZibDDYky7XZ8laQbjia/699MsSSUpj62BF8nfoRc5fo2Pa39EXJstIkNJ+xy7Ox0IvCPybz4BPFxBFkmqm1UIy+zWL/HfnAXcTdjq9xrCnKrbgWcJE/hWLfG9tiJsTNSYX7UDeAl4b8TrewjX5p5q4tTHWcSNjJ7AbSglNccFlPNL/BHgFGAPVjxLfyzhh9mvCI9c233vBTR7r/shhE2TYtrsjCxJE7uHuEb5Tp6YkpRc0dLo/Y8bgbdR/IfT6sBXgRlt5niIZtds+QZx7XV3npjprEP8h+igLEklKa2VgScp3uHOAD5M+PVZhtUJxYDaGQQ0uWrrm4lvr/WyJE3kCOJvI7msRFITnEzxjvY2YIOKch1O8bsBc4FNKspVd6sA84lrryOyJE3kNOIaw61/JTXBeOKXjvUd/0v1+8nvSPH6Az+oOFud/ZW4tvrPPDHTuIy4xvhqnpiSlNS/UaxzvZJ02/C+CphaIOM8YMNEGevmFOLa6pI8MdN4lLjGsPKfpG43grAcL7ZjvZNyl+8Nxn7E7+PSItz9baK9iWunR/LErN7KwGLiGqNR+yNLaqQiM//nAlvmCEuxuxVP0czl3KsT106LCX1l13ktcQ0xLU9MSUrqN8R3qF/MkjQYRliyFpt5/xxha+B54tppxzwxq/UvxDXCdXliSlIyIwm79MV8Nz5MeGyQ05uIHwB8P0vS/K4lrp1idhBsS1nrRQcjdn1j12+JKKnx9iC+jO53CcvLcrqMUPY2xt5VBOkA90e+ft1KUgwg5QBgfOTr760khSTVx26Rr58JnFdFkAL+O/L1m9HM1QD3Rb4+WVGgYaneiPiTeqiSFN1hDeB4YF/C7ortVN6aQ3iedz7we8ItqDrYGzgKeDXxv5D6q+v5SQCviXz95YRBQB38krBVe8x2vzsS9shvkgciX5+8KmAKlxP3HOR1eWLW3gHAdOKfvw3muJz0y4qWNpJQ/rlbz0/qL7ZgzPvzxFymq4nL/7ksKfPahbg26sq9AG4irhE2yxOz1l5HWP5TRefYd/yJvMt1qur863J+Up+RxK+pn5gl6bJ9jbj8P84TM6stiWujyXliVuth4hphQp6YtdUD3Eq1nWPfkWwW6lJiN83otPOT+tuYuM/tPOo3eH07cedwRZ6YWU0gro0eTBUs5STA2PkGcypJ0bm2IzwPT+FfEr3P0o5K9D65zk/qL/Zx1BTCHYM6eS7y9WMrSVFvcyNfn2yQl3IAsDjy9bGN1u1Sdf6p3yvH++Y6P6m/2B3fXqgkRXumRr6+iQOAeZGvj+0rC6vzAKCdme3dKFXBD8i3yUiqVSm5N1GRIP47MeV3wGDF7kdQx3Oo2sLI17cqSTGAlAOA2JMaU0mKzhW7lKQdsRtXlCXVs69c5yf1F9t51nHgGvuLvomPdmMHPcke89T5DkA7a7+70bXA04ne638SvU+u9811flJ/sbf016d+d0Zjd3ityx4GKY2MfH1XPgKIvQ3SlRWR2rAA+GyC93mEsNVoDhcQlotWKef5Sf3FTqAbRxgE1MmkyNc/WUmKeovZKAm69A5AbHU/7wD8s58AJ1PdM6IpwIGE4iQ5LCKURr2zon8/9/lJ/c0ifhCwbRVB2hC7YVvTdgGE+G3wYydWFpZyAPBM5OtXqSRF5/sysA9hPe2Ckv7Np4HTCUsN7y7p3yzqSWBnQrnTR0r6N+t0flJ/sZ/HgytJUcxwYM/Iv6lqcF9nsQOA2EFhYSlrAcQOAOp2q6tO/tx7DAfWor3JQdOp3/Kil4Gv9h5jaW9v7Dqen9TnVuI60UMJdUBiH6lWYX/i9zK4tYogNbd25Otj+8rC6jwA2LySFN1lAfBE7hAVm0kzJw6pGa4DTop4/QTgIOC31cSJckzk66fTzDsAW0S+PtVk71o/AnAAIKnb/YX4SV9fJP9qgG0J82liXE39djJMYcvI1z9bSYoBpBwAxM7+jB01SVKnmUZY4hvj1cBhFWSJcTrxg5CLqwjSAWL7sqcqSZHZRsQVRJieJ6YkJfVh4gtaPU2+gmnvHmTG/sdcmluK+0Xi2qor57/1EN8Q62ZJKknprArMJr5T/R3pHwVsQZiTE5v1F4lz1sVaxLVTV09Yvoa4xnhHnpiSlNS5xHeqLeC0hBknELbRLpJzl4Q56+TNxLXTn/PETOO/iGuMM/PElKSktiAs7SvSuX45Qb61gFsK5rs+Qb66Op24tvp2nphpHEtcYzRxyYikZvopxTrYFvAj4recHaxXAQ+1kW2vinJ1gthB09F5YqaxA3GNsZh8E10kKaUNCJtgFe1ob6XcrYKHAh+h2PyEvqOpM/8h7AC4iLj2enWWpIkMIexzHNMgb8uSVJLS+xzFO9sW4THCOcTvPre0/YGb28wyG5jYZo5Odhhx7fUcaZfmZ/FL4hrlp3liSlJyw4DJtNfxtoB5wK+BNzH4crTrAh+l+LP+pY8TizRAFzmbuPb6eeqAOXaTOoYwQh2slwmjWSu4SWqCzYEbCeV/yzCPUGb7ZsLW4VMJ36fjCI9YJwE7AluV9H4AlxAKF7VK/Dc7yXDChj4xdUyOBs6rJk59bET8SPLwLEklKY/9KL4qIPdxL7Ba+U3SUQ4lvt02zJI0g9i1pE2eSCKpmU4gf2ceezyHdVwALiR+0NQYpxLXOPNprySsJHWiL5G/Ux/sMY1yVyF0qtUIWx/HtN2/Z0mayTbEf7g+kSWpJOX1acKS6Nwd/PKOp+nyJWwRPkR8+5U5/6Ij3EpcAz0BjMiSVJLyei8wh/wd/UDH3TR7uV9/Qwi382Pa76YsSTP7BPEftPdnSSpJ+e0IPEr+Dr//cQGwcoXn3GneSXwbfixL0szWIX6W6700YKMESVqGsRQvHFTmMQ14T8Xn2ml6iN88aQHtb9rUsS4l/oP3lixJJak+9gRuI33Hv5AwAGlsp7UcBxHfnr/PkrQm9ia+wW4h7FEtSU02FHg3cBdpOv5fAa9Mcmadpwe4gfh2fX2OsHVSZNvL47IklaT6GULYu/9CwpLpMjv+J4HTgM2SnU1nOpL4tv17lqQ1U2TSxDTcF0CSlrYqoTM6H3ic+O/WBYS7rP9BeMzg3dYVG0sYKMW2dfZCdzlqASxtKHAfsGnk330f7wRI0vKsT1hjviXhuf06LJm1Pw+YCTwPPETYofUOwnJDDd53Cbs2xniEsGPiovLjdJ7jiR89LQJ2yBFWkiRgO4rVbPhQjrB1NYL4+gAtwmZCozLklSQ1W9HSzfcRqgWqnyLVk1qE2y+SJKX0dYr1WQflCNsJrqBYg7o3gCQplf0Jj6Fj+6qrcoTtFK+mWKO+CGycPq4kqWHWI5Q9dt5aBYpuc3kdFguSJFVnGHANxfqoH2TI23FWBaZQrIF/jrUCJEnl6yF04kX6pieB1dJH7kz7Urz+9ZkZ8kqSuttXKdYnLQYOyJC3o51DscZuAZ/KkFeS1J2Oo3h/9L0MeTveKoTdkoqOuCxVKUlq19spNjm9BTxM6MtUwOsJe1MXafgFwNHpI0uSusQ7CVsmF+2Ddk8fubucRPFbL4uBk5MnliR1uo9Q/Jd/i/j6AFqGoksD+44zcHWAJGnFegg/HNvpc36SOnQ3G0WondzOBTkfGJk6uCSpYwyn/R+ck7FGTenWoVjN5f7HLYQSjJIk9bcBcD3t9TFPE0owqwI7ANNp7wLNAN6VOrgkqbYOAV6gvb7lRUJ5YFVoZ2Am7V2ovmc0YxJnlyTVxzDC8/52Jvu1gJdxxn8yewGzaX8QcDewd+LskqT8dgVup/1+ZDawZ9ro2heYS/sXrwVcDGyYNr4kKYPVge/Q/q/+FmGPgDenja8+BxJuvZQxCJgJfJIwC1SS1F2GAB8EplFOnzELO//sdgKepZwL2gIeBI7FJYOS1A2GAe8lPPItq594BnhNypPQsk0E7qG8i9siDCpOBsalOw1JUklGEDr++ym3b3gQl5PXznjaX8M50DEVOAXYIt2pSJIK2hj4AvAE5fcH1xL6GtXQaNorI7yi4wbgo8CaqU5IkrRC4wjF3/5CqAFTxff/2bjDX0d4J2HDn6oGAguAy4ATgW2xzoAkpTYJOB64kHKWhS/rmE4oCawOsint1w8Y7DGV8CE8gTAxxHkDklSelQi77L0f+Cntbwsfc9d3YoLzy6Ind4CKjQC+BnwMGJr4vZ8F7iVMQLmfsPRkFmG7yFm9x+zEmSSpjlYmfF+P7z0mAFsS5l5tQdinP6VFwLeAzwPzE793Mt0+AOjzauB7hG2EJUlalluADxHuIHe1pjy7vo2w7eP7CL/EJUnqbzrhbvFONKDzh/S3xXNqEfZ9/jGwNvBKmnMHRJI0sMWEeQUHA1cR+opGaModgP6eBd5DGAD8lPCsR5LULC3gEsLE7fcBz+WNk56/gGFr4DPAETTrjogkNVELuBT4EuF5f2M5AFhiX+AiYEzuIJKkSswGDgGuzB2kDpr4CGBpGxJKQ/4OO39J6mZjCLf9vw+snzlLdk2+AzAR+FdCsYgRmbNIktKaB5wHnApMyZwliyYOAMYAnyY893dfZ0lqtjnAdwlF32ZlzpJUkya99RD2c/494RnQsLxxJEk1MBzYjbASYCpwR9446TTlDsAk4Fxgl9xBJEm1dhXwAeCR3EGq1u0DgCGEin3/TigVnMMiQl3qqSypAfAyYdepWYTKgpLURMMJdQBWJRT8Wbn3WIMwSS/XXeqXgE8AP8j0/kl08wBgY+BHwOsTvd9i4E7CutL7CAWA7gUepIuLSUhSRUYCm7GkKNCWwPak3cX1UuAY4OlE76cSHAbMpPpSkXcDZ/a+3xpJzkySmm0N4G3AWcA9pCn3vl+SM1NbhhLK/y6mug/DbcDHgfUSnZMkadnWBz5JmLxX1ff+QsLqsW6+a97RVgcup5qL/xRhs6Adkp2NJCnW1oR1/U9TTV/wS8JcBdXIZoRn7WVf7DuAw2nWcklJ6nTDCPVd/kE1d4HXTXcqWp5tgCcp9wLfStgzwNs9ktS5eoCDgMmU20c8Amye8Dw0gD0Jy+nKuqi3EIoCSZK6yxsJv97L6i+eBrZNegb6PwcTtnAs40JOB07AW/2S1M2GEfaGmUE5fceLwK5Jz0DsQ3md/8VYFUqSmmRt4CeUs2JsBrBj2vjNtQthB712L9oThIGEJKmZ3kA5c8ieB7ZKnL1xXgW8QPsX60rCCFCS1GxrAJdRzo/KiYmzN8ZGwLO0d4EWAJ/F2f2SpCWGAJ8n9BHt9DEPAOMTZ+96KxGW5rVzYZ4ilHyUJGkgewDP0P4dZsvNl6QH+AXtXZCHCJsFSZK0PBMJxdza6XO+nTx1l/o32rsQNwFrJk8tSepUawE3017f84HkqbvM3sAi2rsVs0ry1JKkTjcW+BPF+5+5hInrKmA1YArFG/9iQj1pSZKKGAlcQvF+6A5gVPLUXeDnFG/0v2HFJklS+0YD11K8P/pm+sid7d0Ub+w7CaWBJUkqwziK1xFYDByQPnJnWpPim/08CqyXPLEkqdutDzxGsb7pMbwrPSg/pFgDTwe2zJBXktQMrwBmUqyP+nqGvB1lV4oXZzg8Q15JUrO8g2J91DxgUoa8HWEoxXf7OyNDXklSM51Nsb7qihxhO8HxFGvQm3G5nyQpnVEUnxT4lgx5a200xUoyzsAtfiVJ6W0BvER8v3UHofiQep1EsZHUR3KElSSJ4n3XO3OEXVodyuKOBh4E1o38u1uAnQhbBUuS/tkwwuqoTYANCXuk9C1HmwPMAqYRvoPvBaZmyNjJhhLqzbw68u/uB7bC/otPEj96WgS8NkdYSaqxocBewNeAyYROPua79Rngl8AHCVXxtGK7UGz12pE5wtbJMOBx4hvu7BxhJammtiGshmq3ln3/YzFwHXAsoTCOlu1c4tv31ixJa+Qw4httGm71K0kAexCqnhbdP2Wwx4vAV4E10pxWx1mD0Eax7bprjrB1cTXxDfbFHEElqUYmAZdTbac/0PES8FlgePWn2HG+Qnx7XpAlaQ1sTfyodSahTLAkNdFw4MuEWvOpO//+x93A7hWfa6dZnfhtgufT0Po1ZxD/oTs1S1JJym8z4Abydvz9j4XAF3BNe3+nEd+O/5olaUZDgKeIa6Q5wDo5wkpSZvtQvEpq1cflOEmwz9rAbOLa7x9Zkma0F/Efsv/KklSS8nov4VZx7o5+ecctwFpVNUCHOYv49ts6S9JMihRSiN1oQZI63bGEfU9yd/CDOR4gfkO3brQD8W33lSxJMxgGPEtc49yZJakk5fMOOqfz7/9d7TLtcFs/pt3uyxMzvd2I/1B9KktSScpjN/LP9C96XAOMKL9JOspniG+3SalDDkv9hsAbIl+/GPh5FUEkqYbWBn5FuWXOHwDuAR4Bnu7931YBxhOeP29Neb/cdyes2Pp4Sf9eJ/oZ8O+ErZkHa29CPYaudg1xo6I/5IkpScn1AFdQzi/x64BjgI0G+b6vJSxjm1LCey8GDinYBt3iSuLa7MI8MdNZCZhHXKNY8ldSU3yA9jvf3wCvaSPDcMLA4dE2czwDrNpGjk73MeLa60Xi7hh0nP2J/xBtlSWpJKVVdD/5vuMx4MAS84wgVBVc2EamM0vM02leSXx77ZglaSInEz+C7MkRVJIS+w7FO9o/UN1mPHsATxbMtRB4VUW56q6H+OqMH86SNJHfEtcYjS2UIKlR1if+8Wjf8d9UX5xnU8IEwiL5flVxtjr7JXFtdU6emGnEfoCOyRNTkpI6nWKd6wWku0u6AcXmBSwCXpEoY90cR1xb/T1PzOqNI776X/J1kZKU2BhgOvEd6zWUu1RwMHYk1GWJzfq9xDnrYivi2mk2eZbnVy52A6D5dGlDSFI/7ya+Q51Ovm13Y3/VtgiFjFIPVupgOLCAuLbqyroA/0JcI9yTJ6YkJXU58R3q8VmSBj3A5GXkWt5xWI6wNXA/ce10cKpgKes4rx/5+sbsjSypsVYG9oz8mzsJBdVyaQEn9f5njGQdW83E9mUbVJJiAA4AJCmfvYi/Nf5twnyqnP4GXBX5N3tXEaQDxPZlsX1lYQ4AJCmfXSJf/zxwfhVBCjg38vXrA1tUEaTmvAMArBf5+icqSdEdJhHW/k4hfoLJ0scswvO8E6jPJJ2hwFHA1RSbHV3385P6xG7ZexmhSmAd/BaYGfk321URpOYejXx9sjsAKcUWmHhdnpi1937CCol2OsVlHbcSP1Ar26qEW4vden5Sf08R9xk+Ik/MZfoDcfm/mCdmVtsT10a354lZreeJa4Rt8sSstTcTNtWoonPs30nm+qXcQ/wXSiedn9TfaOL3Rqnbr8MvEZe/Lo8vUtqQuDZ6IE/Mar1EXCNsnCVlfQ0BHqTazrHvyFWB8dCIjJ14flJ/mxD3uZ1D/WqjvIW4c/hTnphZrUZcGz2VKljKOQCjI18f+2yp272OsB93Ckcmep+lpbq9mev8pP5iS+U+Sugg6mRq5OtXqSRFvc2LfH1sX1lYqgHACOLrHM+qIkgHS1kWOdfjl1Q7YPl4SXUwJvL1dfxRFDsAGFdJinqLHQCsVEmKAaS8A6D2pBz551pjnOocc6+hliD+c1h1xb8iFkW+3j6nRlJdjPnEf1BWriJIB7u7S98rx/vmOj+pv9hfhqMqSdGe2F/0sytJUW+xk45friTFAFKOxuZEvn5sJSk612TCJMAUcs3UTfW+TZyJrPqZFvn6DanfL+gNI18/o5IU9RY7AIjtKzuCywDb9ybSLAMckeqEltJDscIonXJ+Un9jiP/8bpIl6bJ9gbj8F+SJmdXGxLVRsmWAdb4D0MTZoityGXAM4ZFKFW4DDqzw31+RFvAu4vcYH6zc5yf1Nxt4MvJvtq8iSBt2jXz9lEpS1Nv4yNd35WOS24gbBe2XJ2ZH2BI4h7AsqN2tgF8C/kpYG1+XX8ZDgPcCfwZepPvOT+pzBXGf55/liTmg0YTVWjH567aTYQr7EddGV2dJWbFLiGuEo/PElKRkvk7c9+IM6rOT5eHED8hfkSVpXscS10Y/SRUs5SOAxyNf38SqUZKa5brI148lPCargw9Gvv454N4qgtRcbF+WrBBeygFA7LOuLStJIUn1cS3xywG/AAyrIEuM3YHXR/7Nnwi/cJsmti/rygFA7B0ABwCSut1M4vfH34xQFTSXocA3C/zd78oO0iFi+7LYvrIj7Ebcc5D55B/lSlLV3kf8s/QZwMQcYYGTBplx6cm4sVsfd4PhxE/UTrntezJjiS99OSlLUklKZwwwnfhO9TrS/0jaifDIIjbrDxLnrIutiWun2XTxD9+HiGuMY/LElKSkvkV8p9oi7GoZW2itqE2BZwrmfFWijHXzIeLa6YY8MdP4DXGN0cRdoyQ1z3rAXIp1rudS/SBgS5aUI449Lq04W539iri2+n6emGl8ibjGeJawPawkdbszKNbBtggbCk2oKNd+xG/l3ncspn67F6bSQ+jDYtrr+CxJE3kj8R+gVDXiJSmn8YQCQUUHAVMI9ULKshJwOu3VH/n/nkQXAAAaH0lEQVRxiXk6zauIb68dsiRNZAzxt7lOyJJUktI7huKdbd/xB2C7NjKMIGzy83ibOV4A1mwjR6eLXS0xjfpVeyzdX4hrlD/miSlJyfUQin61OwhoATcSJqENpmTvUGBn4BvA0yW9f112LMylb+OjwR6/Th0wx3KDq4A9Il6/D7A+CXdHkqRMWoRNfm4iTAxsx469B4SdWP8OPEX4pTmbcIt/TcIEv+2AcW2+X3/nAb8o8d/rNOtRbKfErhe7IVAL+HSWpJKUx84UXxWQ+/gbMKr8JukonyW+3Rqx++1Q4mdG3pUlqSTl8zZgIfk79JjjQWCtKhqjw/yDuHZrVJGk7xH/wWpnUoskdaKjaW8WfsrjUQY336Db7Uh8252cI2guexLfQGfmCCpJmR1OqI2Su4Nf3nE3sFFVDdBhivzA7cr9/5dlCGFSSkwDzQHWyRFWkjLbB5hK/o5+oONqYPXKzryzrE2YYBnTfrdnSZrZd4j/oP1nlqSSlN9EwtK+3B1+37EYOJUuLl5TwDeIb8fPZUma2SuIrw44C1gjR1hJqoFhwBcpVpGvzONB4pe5dbvxhLLHMe04jwZPmozdKKFFwyZLSNIAtiAU2Und8b9EGICMqf4UO84pxLfnT7MkrYm3EN9gLxBGWpLUdLsDl1N9xz8TOI3wjFv/bAIwnfh2fV2OsHUxFHiE+EY7J0dYSaqpVwDfAp6h3I7/BuAjwKrpTqUj/ZD4tr0lS9Ka+TjxDbeIho+cJGkAQwi7rX4NuJb43QSfBC4ilKWdmDh7p9qN+PlsLeCIHGH768kdgLBl5IPE73v9D0Kd6YWlJ5Kk7jAM2ASYBKxL2Pu/7/n9QsKt/WcJm/jcTygEpMEbRqjbsG3k390NvJIwcGi8Eyl2e8pSwZKkXIrcwW4Bb88Rtq5GUaz29Exg8wx5JUnNNon4ZX8twsY/QzLkrbXjKDaSuhUrT0mS0hkN3EGxPuvgDHlrbyhhVmSRBj0rQ15JUjP9gGJ91R9zhO0Ur6F45asjM+SVJDXLOynWR80DtsyQt6OcR7HGnUFYCytJUhW2pthz/xZhaaZWYAJht78iDfwYsH76yJKkLrcBxSar9/VNK6WP3JkOo1gjt4C7sDSlJKk84wlr94v0SYsI5ZwV4XyKDwIm42hLktS+0cB1FO+PTk8fufOtSrhtUrTRLwFGJk8tSeoWI2mv6uLt2A8VtifFVwW0COWGx6YOLUnqeGOBqyje/8wBtkmeust8luIXoEXYrGHd5KklSZ1qbYrvS9N3vD956i7UA1xAexfiYdwyWJK0YhMJhZHa6XN87l+iMcDNtHdBngb2SB1cktQx9iJUR2ynr/kDYWdblWgDQifezoVZAHweCzFIkpYYAnyRUCK5nT7mPmC1xNkb45XANNq7QC3CxI51EmeXJNXPBOBy2u9XngA2Thu9eXam+FaM/Y8ngX0TZ5ck1ccbaf/Ocovw2MB9/hPZm7DEot2L1gIuJjxekCQ1wzrATyinD5kO7JA2vt4MzKacCzgD+BgwLOkZSJJSGgZ8HJhJOX3HC4S70spgd+BFyrmQLeA2wi0hSVJ3OYCwL0xZ/cVThHlpymhrwuSLsi5q30DgvbiUQ5I6WQ9wEHAD5fYRDwObJTwPLcemwAOUe4FbwD+AI/DRgCR1kmHAkcCdlN8v3IqryGpnLPBbyr/YLWAq8H1gt2RnI0mKtTVwKuXM7B/o+DlWmq2tIcBXgcVUc/FbhGdIn8SVA5JUBxsCnybcsa3qe38B8IlUJ6T2HEpYmlHVh6HvuBc4C3g7YTMJSVK1JgDvAM4m7LxX9ff8c4Sl512nJ3eACm0I/JB0F65FeN50C+FDeX+/Y16iDJLULUYCW/QeW/Ye2xFK7Kbqu34PHEvY6KfrdPMAAML5fYTwTGhMpgyLgceBZwjbGL9A2L8Awv4DizPlkqTchgDjev/7SoR99McTJtmtT766LTMJe8P8MNP7J9HtA4A+WwDn4iQ+SdLyXQEcAzyWO0jVmlIV737CpkEH04CLKkmK9gTwPmA/GtJPNG2jm/uBcwglH18LDM8bR5KU2Wzga8A7gZszZ0mqaQMACMs5rgZ+RpgX8Eqa2Q6S1GRzCfu7vIsw2W9h3jjpNWUOwPKsBZwEnEC+iYKSpDTmAT8m7BnzROYsWTkAWGJf4CIcBEhSt5oNHAJcmTtIHTRlEuDybEOoC/2/2PlLUjcbA/wRuBjYIXOW7Jp8B+CVwKcIBSMcCElSs7SAS4GTadjkvz5NHACsA3yDMPGjiecvSVqiBVxAqPHyTOYsSTVp9vsQwuYOvwN2xM5fkhT6glcR+oc5wE2EQUHXa0onuD3wPWCn3EEkSbV2G/AhYHLuIFXr9gHASEIdgI+S9jl/C5hC2HiorzDQDGAWYY/pmcDLhNGmJDXZaEIdgLGEugArAWuwpBDQFsB6iTMtBr4DfBaYn/i9VYLNCRM7qi4V2dfZ/5iwjeS2hA+0JKkcqxBm7R8P/A+hRG+K7/abgM0SnJ9KdCThV3ZVH4pZwC8JZSI3T3ROkqSgh7CE+6OEmfzzqe77fgZweJrTUjvGAOdRzYdgEfAnwq/8lVOdkCRphSYQdnOdTHUDgf/Gu7u1NYFqLv5jwOeADdKdiiSpoC2AU4CplN8f/JUwP0E1sglhsl2ZF/ph4ERgVMLzkCSVYyXCd/jjlNs3PEQYZKgGdqbcCSF3EJ73NGmPBEnqViMJa/wfoLx+4jlCSXlldDBhOV1ZF/Qoun9ppCQ10XDgE5Q3Qfxl4KCkZ6D/80ZCPed2L+JiQjEgn+tIUvdbh/Cdv5j2+4/5wIFp4+sNhE102r14N+HugJLURHsBd9N+PzIH2Cdx9sbaBXiJ9n/1f4dwS0iS1EyjCH1BGY8D9kicvXF2ImzK0M6Feh44IHVwSVJtvYv2+5bphEJzqsCGwLO0d4FuADZOnFuSVH8b0/5eMs/gnjGlG037+/qfBQxLHVyS1DFGAufTXl9zI+4YWKoLaO+CnJo+siSpA/UAp9Fen/Oz5Km71KcpfhEWAyeljyxJ6nAn0t5SwY+nj9xd9gYWUqzx5wJvTx9ZktQljgYWUKwPWgjsmTxxlxhHKMRTtOHfmj6yJKnLvIfidwIeBcYmT9wFfkjxWy8nZMgrSepOn6J4f/TfGfJ2tIMo3thfyJBXktTdvkHxfunNGfJ2pPHA0xRr5LMy5JUkdb8e4McU65ueIvRtWoEfUayBrwSGpI8rSWqIEcD1FOujzsuQt6NsBywivmGfIVR4kiSpShsAU4nvpxbhVsHL9ReKNeq+OcJKkhrpQIqtDLg6Q9aOcBjFbqucnCGrJKnZzqRYn3VojrB1NgJ4gPiGvBYYmiGvJKnZRgG3Ed9v3U/o89Trw8Q34nxgmxxhJUkCXkOxeWvH5wi7tJ7cAQi/4O8DNo38u9MJmzNIkgY2Dtie8P26IbAWYWe6vjunswhL1J4B7gHuJJRd1+CdAxwT+TePAFsQdq1ttMOJHz09DqycI6wk1dhIwqYzZwL3Umyi2kOE5dhvA1ZKmr4zrU6xVQHvyBG2bm4mvuHeliWpJNXTtoSN0F6g2MS0ZR2zCaVt90h3Kh2pyGPsG7MkrZE3UGzinyQJXg9cQbmd/vI6rIOpx6PjuhlKsQmBe+UIWxf/S3yD7Z8lqSTVx+bA70nT8Q/0I2y76k+x4xRZyn5JlqQ1sC5hAkRMY92Ko09JzTUM+Azh1nyOzr/vWAj8B2HOgYIhwF3Et+PaOcLmVqS84luzJJWk/NYm7CSXs+Nf+riDcDdCwdHEt+FJWZJmdjtxjXQ3FvuR1Ew7Epbr5e7wBzpeBA6o7tQ7ynDgMeLa7+YsSTN6JfEfsmOzJJWkvA4grNfP3dEv71gAHFlVA3SYTxDffltnSZrJfxDXOHOAVbMklaR8DgDmkr+DH8yxCHh/Nc3QUSYQdqqNabuvZUmaSey+/7/ME1OSstmd8OMnd8cecyzEuVoQZvfHtNt9eWKmtzHxH6o35wgqSZlsAjxP/g69yDEH694fSXy7bZw65LDUbwjsF/n654A/VhFEkmpoJPAbYI2S/r0ZwHWEJWqPESbtLer998cDmwG7El+PZVlGARcCOxC2yG2iiwjzNmK2rN8HOLeaOPXxK+JGRWfkiSlJWXyb9n+FvwScTXiMMNiS6esCHyesuCrjTsCvC5199zifuPb6RZ6Y6QwhvmjCIVmSSlJ6u1KsvGzfMRv4CqFATTv2J35Tm4GOd7WZo5O9g7i2eo4uX+q+I3ENshBn/0tqhmHAPyje2V4FTCw5z8dobxXCkzS3cutaxFdj7Ootlo8jrjH+niemJCX3AYp3tF9l8Lf6Y+0ETGkzW1PdQ1xbfSBPzDTOJK4x/iNPTElKaiTFOtlFhB9WVVubsFStyABgBrBagox1dDZxbfXdPDHTuJa4xrDyn6QmeB/FOtePJcy4AfBowZxfSJizTg4nrp2uzpIygR7C8pOYxpiQJakkpXUT8Z3q2RlybkOxzYmmUN0jijpbj7h2eiFPzOptTFxDTMuSUpLS2ob4DvUuYHSOsMCJg8y49NHUgkHTiWunDVMFS7nkYKvI1zdma0RJjRa7VK4FfIjwSzyH7wLXF/i7d5QdpEM8EPn62L6ysJQDgPUiX+8AQFITHBT5+t8D11QRZJBawBcL/N2BNPMxwIORr4/tKwtLOQBYO/L1DgAkdbu1CeXRY9RhddRVhEndMdYAtq0gS93F3gGI7SsLS1kLYK3I18c2WhONANbs/c+iZlDv+RbjCPuVF1X381Oz7UKYID1YdwJ/qyhLrHMJWw3H2BW4pYIsdXZ/5Otj+8qO8GviJkLsmSVlZ9gbuAJYQLHJOEsfTwOn015HW6aVgS8Bj9Cd5yf1+Qpxn+XP54k5oNWJr3v/oxxBM3s9cW30qzwxq3U9cY2wQ56Ytfcl4reXHOwxBdg63akMaD3Cr5xuPT+pv98Q9xneOU/MZfozcfnrcvcipdgt8P+SJ2a1YrdE3DJPzFp7H9V0jP2PR4BVUp3QUoZSbD10p5yftLQbGfxndz4wPE/MZYqtXPhcnphZTSKuje5MFSzlJMDY+QYzK0nRuYYDpyZ4n42BExK8z0COpPo7PxuT7/ykpcXM+H6Y8NivTu6KfP14mrcSYFbk65O1T8oBQOx7xTZat9uddLND357ofZb2tkTvk+v8pKXF3I16qrIUxT0e+fohNK/C68uRr0/WL6ccAMTMdIVQ11pLbJ7wvbZI+F79bZbofXKdn7S0URGvreOPovkF/ibl6rM68A5AgfeK+X+MJijy/2hFzUv4Xv2lur2Z6/ykpS2MeO3IylIUF5O/T8p+pw5iBzyxP5YLq/MAwIla/7/bE77XbQnfK8f75jo/aWkxvw7ruIy1SKaXSk9Rb+MiX9+VjwBiR4oOAP5/t/YeKfww0fvket9c5yctLWay85qVpShuo8jXLyT+mXinix0ALKokxQBSDgCmRr5+5UpSdK4WcDzV376+Eji/4vdYlquBn1T8HjnPT1pazMS+9alfifTYeTtPEb7LmiR2APB8JSkGUOcBgHcA/tlk4FDgxYr+/csIM/EXV/TvD8axVDcIqMP5Sf3F1DzpIWwdXCd7R74+tjBON4gdAMT2lYWlnI0Zux/76pWk6HyXE1YEfAjYF1iX9gZycwgbT5wPXNx2uvbNI2x4dB5wFLA97d0Nqtv5Sf3dG/n6fYDfVRGkgA2BV0T+zd1VBKm52GWPXVm75JvE7Yb0yTwxJSmZPYn7XpxKfVYDfIr4nTjfkyVpXp8hro1OSxUs5SOA2FGNWwFL6nZ/I9ylGqzxhMeAuQ0DPlLg764vO0gHmBT5+mSPAFIOAGJ3sXIAIKnbzQP+Gvk3/0b+zXTeSXgEEOM+wnbGTRM7AHi6khSZvZa42yDP5IkpSUkdT/yt9OOzJA3GAk8sI1ctbm3XzAvEtdOOeWJWa2Xiy9g2bc9oSc0znnAnIOa7cRrxa/DLcuYgMy59bJsjbGbrENdGi+niJfCPEtcYe2VJKUlpXUh8h3oj6bdMP5z4H3It4JbEOetiP+La6ZGU4VLvyRy7BMQBgKQmOL3A3+xI2NUy1XyA3Xrfr8he9d8uOUuniO3DYssrd5TTiBsNXZsnpiQldxXFbq1fCIyoONt+wPSC+R4Fhlecr65uJK6t/jNPzDSOIK4x5tPFz0MkqZ/dKXZ7vUXYRnuDinIdR6jUWSRXi2au/QdYjVD7IKatjsiSNJHYCREtYP8sSSUpvZ9SvKN9gfCMvqxyshMJ22cXzdMi/AJuWvnfPm8lvr3Wy5I0oXuIa5Aiz8YkqROtTfFb7X3HTcCb28iwIeFW9Mtt5pgPbNdGjk4Xu1qiEdskn0VcozwBDM2SVJLSexftdbx9x/3A14AdWPFEwXUJtTcupL3b/f2Pkwu3QOcbypLKh4M9zsiSNLG3E/9BcjWApCb5PuV0wn3HXOBWQgd/Xu+//2PgL4SlZ2W+Vwv4E83+4XYA8W32lixJExsPLCKuYc7LklSS8hhN2De/7I45xfEosFbpLdJZfkFcmy0i9I2NMJm4xpkJjMmSVJLyGAfcTv4OPeaYSvze991mVUKBp5h2a1SRpI8S/8E6MktSScpnA8Kz/Nwd+2A7/+2raYaOcizxbffhLEkzWYv49ZE3ZEkqSXmtCdxM/g5+eceTwDZVNUAH6SHMtYhpuwXAhBxhc/oD8R+yN2RJKkl5jQV+R/6OfqDjRhqwfn2QDia+/S7NkjSzo4hvqD/nCCpJNdADfJLylum1eywmrHUfXeVJd5i/E9+O786SNLOxwGziG2vXHGElqSZ2IGz2k7Pzfww4sOoT7TD7E9+Os2jwdvdF1rpeliWpJNXHUOAjwHOk7fhnAafgqqyBFFm2eVaWpDWxJfF7ArRwLoAkAawEfBx4mmo7/hcJ1VzXTHNaHecQ4tt0EbB5jrB1UmRiy/3AyBxhJamGRgCHAhcR9uAvo9NfRJh39QHCQEMDGwM8THz7/jpH2LrZg2Ifzn/NEVaSam4sYTb6dwnLBwdb1GcBcBfwI+C9hOqtWrFTKdaHvS5H2P7KKhvZrr8BO0f+zRxga8I+1pKkgQ0BNiKU912dsFPdKMKdgvmExwdPAA8RagZo8LYCbgOGR/7d9cBu5cfpTAdRbAR1cY6wkqTG6yEUUyrSd70pQ95au4JiDdmoLRQlSbXwWYr1WX/KEbbutqXYioC5hHWxkiSlsDPFJlsuwnoJy/RDio2oHiRUzpIkqUoTCHMmivRVP8iQt2OsS9hookjD/k+GvJKk5hgCXE6xPuolXFmxQp+nWOO2ev9WkqQqFF3y1yLMGdAKDCOU/i3SwIsJm1ZIklSmD1O887+J+KWCjTWJYoWCWsBC4LD0kSVJXeoIik1SbxH2rNkqfeTO9kmKj7bmEHYYlCSpHW8A5lG8PzoxfeTONwS4luKNPh3YPXlqSVK32I/iE9NbhFoKQ5Kn7hITgWm0dyfg0OSpJUmd7kja++X/HGELZrVhH0KRiqIXYSHwweSpJUmd6kSKP/NvEfqsvZKn7lInUfxCtAirA1wiKElanh7gdNrrb1rACamDd7tzaf+i/BZYLXVwSVLtrQFcSvv9zI9TB2+CURTfH6D/8SDWDpAkLbEHxbf37X/8FRiZOHtjrAH8g/Yv0nzgM4TbPZKkZuohPO8vUthn6eMOYHza+M2zNnAf7V+sFuF2zyZp40uSauAVwNWU05fcA6yZNH2DrQ88TDkXbjZwMuERgySpu40hfOfPpZw+5DFc7pfcJpTzzKbvuJ+w6YMkqTsdBkyhvH5jCrBxyhPQEhOBeynvYrYIpR7dQVCSuscbaW9n2YGOu/GXf3arAddQ7oVtAdcBB+FEQUnqRD2E7/AyVo8tffyNMCldNTAK+DXlX+QW8Hfg3cBKyc5GklTUOEJZ+DJWjA10/A/OGaudIcC3qOaCt4CXgB8Rtia2uIMk1ccw4EDgF4QaMFX1A9/E7/9aOxyYSXUfgBbwOPAN4E3AymlOS5LUz2rAW4AzgWep9jt/BvCuNKeldm0O3EK1H4i+YwFwPXAKsDeweoLzk6SmWZPwo+s04CbaK9YTc9wMbJbg/JLr5gluowhFHT6c4b2nElYn3EdYXng/8Hzv/z6N8MGd2fufktRkwwl3UocTJtaNB9Yi/JCbBGzZe6yaOFcL+C/gU4SywF2nmwcAfQ4m3CJaP3cQSVJHmEL48XhJ7iBVGpo7QAL3Ad8nTBLZGSdwSJIGtpDwq/9twJ2Zs1SuCXcA+tsWOJswEJAkqc+twAeBG3MHSaVpv4ZvB3YDjiNsIyxJarbHCR3/jjSo84fm3QHobwRwFPAlYN28USRJiT1PWM79XcLeAY3T5AFAn5HA+4AvE0oNS5K611TCCrEzCNVgG8sBwBIjCSsGjgXekDmLJKlcNwPnAOcDL2fOUgsOAAa2PeGZ0BG4058kdaq5hL37v03YHE79OABYvnGErSYPAfYDxuSNI0lagdnAH4GLeo8ZeePUlwOAwRtDGAQcQigxOT5vHElSr6mETXsuInT+jZzUF8sBQHGbEJYU7gDsCmxH85ZVSlIODxNqsNwMXEdYw784a6IO5ACgPOMI60g3JQwO+o6JWCBIkmK9QOjoHwYe6f3PhwiFgLytXwIHAGms3HuMIRS0GN17rJYzlCTVwIuEW/ZzgOmEZ/izeg9JkiRJkiRJkiRJkiRJkiRJkiRJkiRJkiRJkiRJkiRJkiRJkiRJkiRJkiRJkiRJkiRJkiRJkiRJkiRJkiRJkiRJkiRJkiRJkiRJkiRJkiRJkiRJkiRJkiRJkiRJkiRJkiRJkiRJkiRJkiRJkiRJkiRJkiRJkiRJkiRJkiRJkiRJkiRJkiRJkiRJkiRJkiRJkiRJkiRJkiRJkiRJkiRJkiRJkiRJkiRJkiRJkiRJkiRJUrP8P/cMoh8+QBTNAAAAAElFTkSuQmCC" vertex="1" parent="1">
          <mxGeometry x="350" y="280" width="50" height="50" as="geometry" />
        </mxCell>
        <mxCell id="z-h519-FT7M5sTP4B4l5-11" style="edgeStyle=none;shape=connector;rounded=0;orthogonalLoop=1;jettySize=auto;html=1;exitX=1;exitY=0.5;exitDx=0;exitDy=0;entryX=0.5;entryY=0;entryDx=0;entryDy=0;labelBackgroundColor=default;strokeColor=default;strokeWidth=2;align=center;verticalAlign=middle;fontFamily=Helvetica;fontSize=11;fontColor=default;endArrow=none;endFill=0;" edge="1" parent="1" source="z-h519-FT7M5sTP4B4l5-6" target="z-h519-FT7M5sTP4B4l5-2">
          <mxGeometry relative="1" as="geometry" />
        </mxCell>
        <mxCell id="z-h519-FT7M5sTP4B4l5-6" value="" style="shape=image;verticalLabelPosition=bottom;verticalAlign=top;imageAspect=0;aspect=fixed;image=data:image/png,iVBORw0KGgoAAAANSUhEUgAAAgAAAAIACAYAAAD0eNT6AAAABHNCSVQICAgIfAhkiAAAAAlwSFlzAAAOxAAADsQBlSsOGwAAABl0RVh0U29mdHdhcmUAd3d3Lmlua3NjYXBlLm9yZ5vuPBoAACAASURBVHic7d13lGZFgffxb88MDFEkCEowYEBAJIpizmvCjBFFcQ2rLuqLiGFdEEFQXFAMKCbEgGJOuwbMYkARJIhkVHJOM6SZ6feP6tbHoXumb1Xdqnuf+/2cU0fP0afnd+sJVbduBZAkSZIkSZIkSZIkSZIkSZIkSZIkSZIkSZIkSZIkSZIkSZIkSZIkSZIkSZIkSZIkSZIkSZIkSZIkSZIkSZIkSZIkSZIkSZIkSZIkSZIkSZIkSZIkSZIkSZIkSZIkSZIkSZIkSZIkSZIkSZIkSZIkSZIkSZIkSZIkSZIkSZIkSZIkSZIkSZIkSZIkSZIkSZIkSZIkSZIkSZIkSZIkSZIkSZIkSZIkSZIkSZIkSZIkSZIkSZKk+iZqB5iyGrAjcH/gfsCGwJrAnYHrgJuAK4CzgTOBk4FbqiSVJOlfbQg8lNCGbQFsDKwFLASWADcCVwJnTZXfAH+tkrQjNgP2BX4O3AxMNig3Az8F3jL1dyRJKumBwPuA04FlNGvDJoELgI8CD6c7N+OtmgCeDPwYWErzCpupLAWOn/q7g6hESVIVC4AXE0ahc7Rf0+U84PXA6uUupawnkL/Sli9/nPp3JEnKaTfgXNptwy4HXgvML3RNrbsb8GXarbTly3GEZzCSJKW4F/B9yrZhJxHmxfXa44BLKVtx0+VK4CntX6IkaUw9A7iGOm3Y7YR5cr18tP1O4iZG5CzLpnJIkjRXE8DB1G2/pssXgVXbvdx8JoDDqF9po+UjwLw2L1qSNBbmA0dRv90aLT8B7tTmRefStYqbLke1edGSpN6bAD5N/fZqtk7AwvYuPd0B1K+kFZV3tXfpkqSeO5D67dSKypfp6Gj2c6hfOXMpL2irAiRJvfVs6rdPcylva6sCYm0GXE39iplLuRa4Zyu1IEnqo02Bq6jfPs2l3A48rJ1qiHM89SulSfkFHR1GkSQVNUF4vl67XWpSzqIjKwOeR/3KiClvbKMyJEm98nrqt0cxZd/UC0/dYGAV4BzgHqlBRvwF+B1wIbBo6t/YFNgB2Il8WyQuBrYj5JckDc/mwKmE02dzWAr8nrDt/d8JJwGuSdhN8MGEkwJzuYnwOPvqjH+zkT3I05NZDPwPsOVK/r27AG8GLsr07/4KHwVI0hDNA35GnrbkImBvQhu1IlsBhxPavBz/7n8nXH+y02cJ1aR8D9ik4b+7JnAoeU4U3LvpRUuSem8v0tuPpYQjgZuOIGwK/G+Gf/9KYLWG/3YWO0eEXb68k7THELsSHhOkZFhM3mEZSVK33Yf0tmMRoQ2KNQHsn5hhkrB8sbjDI8NOl1xrGR8P3JqY5TeM0fGLkqRZzQN+SVqbcSuh7cnhHYlZvpIpRyPnR4adJBxukFOOoZy3ZM4kSeqeN5HeXuyVOdOXErLcRJgsX8ymCWGvYuUTJWKkPk+5Bdi6hVySpG7YgvQJeD8i/xG96wNXJGR6SOY8K/SihKBt3WlvClyXkGuSsPxwQUv5JEn1zAdOIK2NuI6w820b9k3ItU9LmWYUe2DCYuDOLeZ6eWSu0dK5fZYlScneTHr7sGeL+dYljETH5PpUi7nu4LjIkN8tkO0bkdmmyy3ANgVySpLKuD/pQ/8/JP/Q//K+H5ntZy3n+he/jgz51gLZNgauicw3XX6PjwIkaRzMB35LWptwLc33q4kRuyLg3Jh/LHYXvLUiX3dW5OuauIT0ff53IsM+y5Kk6t5M2IY3xRuBizNkWZnYNnKNrClW4lzieimPK5jx25EZp8utwAML5pUk5bU18c/Vp8t3CuZ9QmTG6wpm5MzIkLk2TpiLuxEOSUh54/9I4fWVkqQsFgAnktYGXE1oS0p5YmTOK2L+sdhHADdEvm7jyNfFuJT0zRq2B96eIYskqay3Ag9K/Bt7EdqSUjaNfF3REYD/I66XcmjJkFNSVwXcRjg2WJLUD9uQPvT/zeKp4bDIrL8pGfKDkSH/WDLklI0IJyalfBBOAVYtHVyS1NgqwEmk/eZfBdy1dHBCWxOT97MlQ742MuQkde6mX5CQd7q8q3hqSVJT+5H+e/+C4qnDpPPYvCWW2P/DTglBjykZdMRXG2ScqdwG7FA8tSRprrYl/XTYrxVPHXyuQcbly2NLBp1P2BghJuhSYOeSYadsSNphC5PAqfgoQJK6aBXgZNJ+468ktBWl7Qwsi8g7SdjhcLXSgVPuqE8FFpYODOwWmXe0HFg8tSRpZfYn/ff9eaVDE9rCUyPzThIm5Rf3nMiw0+Wg8pEB+HKDjDOV20lfWiJJymc7wmPalN/2LxdPHbynQcaZyovLRw69lpSNdmo1pBsAl0XkHS2nU2cEQ5L0r1YF/kTab/rlwF1KBye0gbdH5J0uNwBrFk89JbXnciYVnl0AT4/MO1oOLp5akrS82OPpR8tzi6cON5GnReadLu8vnnrE+sCNM4RqUg4pnjr4QoOMM5WlwMOKp5YkTdue9KH/LxZPHby3QcaZys2U3V13RqmjAEtIP6kpxvqELR5Tsv+ZOiMYkjR0Oe6gLyO0BaU9mND2pWR/X/HUM1gDOJ+0C/kLsHrp4MCukXk79yZI0sAcTPrv97OLpw4dl9Mj806XvwNrlQ4+mxwNaY1zAiBt84VJQi9ul+KpJWm4diZt8twk8PniqYNDG2ScrTwrR5CJHH9kyueA3RNevwx4NPDLLGnmbh1Cbyz2FCaAswjPom7OkkiKNwGsN0NZE1ibcEQqhM/99Gmgy4Drp/77EsK8nkXANcuVq9uPL63UQsJe/1sn/I1LgQcQPtcl7UJo4+Yn/I1jgRflCJOzA3BnwvOYlIb0fMJ+yIuyJJq7pwLfTfwbhwF7Z8girczGhB+/zYG7T5V7Tv3nxvyzkc9tCXAJ8Dfgwqn//Cvhe3sGZY9N1XC9D9gn8W88m3BSbEmrETouWyX8jSsJHZcrsiTK7KmkD20cVjx18JkGGWcqS4FHFk+tcbYa8FDg9cDHgF8Q7lhSv2NtlauBnwNHAq8j3O24X4Zyegjpk+eOLh16yuFzzLeiUmPOQiNH08+GdB3CHU1K9vPo0MQM9c7mhF29jgB+R/rypi6UW4HfEo4QfxFhpEKKsZAw0pTyebwYWLd0cEJHPrXj8rniqSPkaEjPp05D+gTiD2SYLh8onlp9tRZhAu3HSV9J06dy3tQ170aYnyDNxf+Q/tl7SvHUYaXc2ZF5p8sl9Oi7kqMh/WDx1MEnG2ScqSwFHlU8tfrigYRDS04k/Y5gHMoSwmjHfsA28dWqMbcL6d+XTxVPHRzRIONsJcus/5I+RT8b0jsRJjalZK81gqFu2prQ6J9J/Qa36+V8Quf/4eSdpKz+ynEHfRF1hv4fRmjLUrIfXTp0Drka0rVLBwceR/oIxoeKp1aX3I+wS2bq47AhlwsJ+7zfp1nVa8x8gLTP0TLgycVTh6W350TkHS215ixkkaMh/XDx1MHHG2Sc7UP3hOKpVdOdgJcCPyL9c2/51/IH4FXUuSFQPTnuoI8qnjr4SIOMs5UacxayOoq0ClgGPLF46tB7Oy8i72i5AH+whmBbwtyRRdRvKMe93AR8AucLDMEapN9BX0TYo6a0x5B+E1BrzkJWfW5IH0v6m/jR4qlVwjzCDH7v9uuVXxFWErS18ZHq+hBpn49lwL8VTx3avHMj8o6WWnMWWpGjIT2yeOrgow0ydulDqHasCbyJYS3b63o5F3gD4Y5R4yHHHXStNuNjDTLO1mbUmLPQqiNJr5S+9uYuJDwfVn+tSWhkLqF+g2eZuVxBWG3hd63fcvzmXkB/R41rzVloVa5hkb4+z/l48dTKYS1Cw38p9Rs4y9zKlYSOwDp3fDvVAzlGXWvMG8ux8q1oG1d6ne1jgB8n/rufIMwGLu1DhD3ZY00SZnR+P08ctWxVwn727wDWr5ylqcXA5YS9+UdP87tx6n+/iXCU6qhV+OfeFWvzz1ME158qGwGrt5o6v6uAdxNGH5e/XnXTY4HjSWsjPkLab3WsTwD/nvD6ScLQ/w/yxOmmD5Pew6/xfCTXjNSxmdgxxp5D+nvddrmM8EN5BGGE4pnADsAGLdTHtLsAOxJ2JXsDoVP8Y0Jno3Z9rKicRagfdVuOCeO19o55PP2ds1BUnxvSHGtSP1k8teZqZ8JZ3bUbrOXLucAXgL2AR9PNEYkNCNn2ImRN/SFvo/wc2Kml61e61L1Xau0euw7pQ/8XMKAl4zka0lprJFN3pZpkDGd49tx6hM9TF5bzLSVsenMI8DTCXXdfbUhYKvlewjnoqd/5HGUZYZKVI3HdkmPTuFrnx3y6QcbZPpM15ixU9UHSv8x9Pdmp19s7jpndCbPHazZKFxFGhp5Pu0P4td0FeAGhs3Uxdev8MsLxxKqvz+ev5Dj4rtZut1X1uSHNcTLVZ4qn1qjNCZNtajVAF/LPQ2/mtXupnTV9SNJZ1Hsffgps0fJ1asVyHBz3yOKpw9B/6lkfteYsdEKOhvTo0qGn5Dib2olJ5c0D9ibMlC/d2FxCGA7frvWr7J8dgEOps9xyMfBGPH2whhx30IcVTx18tkHGmYpHxxPevNQvcI2zkhcCZ0TmHW0Q1isdfMDuDvyEso3LrcB3CFvWrtL+JfbePMKM6mMo30k7Htis/UvUlBx30OcRVg+U9rTIvKOl1pyFTlmN/jakDyF9BOOY4qmH6SXAdZRrTC4E9qGbM/b7YgNgX9KfDzcp1+LcgFKOJu29Wgo8onRowkY9f4/IO1pqzVnopBwN6eeKpw7e1yDjbOXZxVMPx7rAVyjXgPyCsI/A/BIXNxALCCMov6Lc+3gs7iTYpqeS/h4dWjx18PkGGWcqteYsdNqh9LMhXQicHpl3ulxBv5d7ddV2lFmPvgz4GuE5ttq1E/BNyizZPBt4YJnLGpQcd9B/oc7OlLtG5h0tteYsdFquhnTD0sEJP/y3ReQdLV8onnq8vQRYRPsN/3ew4a/hAYTHZ6kjhysrNwOvKHRNQ/E50t6TpYTVM6WtT/ok1bPo35baxTyY9C/0F4unDg5ukHG28pziqcfPQsJGL203/F8hLGNTXdsAX6fd93uSsE3rwkLXNM5y3EEfUjx1cGyDjLN1XGrMWeiVQ0j/gDy3eOrw43BaZN7pUmsEY1xsDJxIuw3Bb4CHlrogzdkjgN/R7nv/W+CupS5oDOW4gz6TMHG8tGdE5h0tteYs9EqOhvRK6jSk25P+KOBLxVOPhwfQ7mzxvwEvxbXiXTZBmCzY5ryPiwjfczX3RdLq/nbCeR2lbUDYOTIle605C72UoyH9RvHUwYENMs5Wdiueut+eBNxAOz/4twD74fBvn6wGHEDYg6GNz8T1DHDv9kRPJ73eDyqeOjiuQcaZSq05C712EP1sSFcFTo3MO12uJJy/rpX7d9I7i7OVXwBblrsUZXYf4Ee089lYAryu3KX0Wo476D9TZ+j/mZF5R0utOQu91ueGdDvSG6VvFk/dLxPkmS8yU7kKeBkO94+DCWBP4Gra+azUuivtky+TVse3Aw8qnjp0XC6PyDtaas1ZGAt9bkjf1SDjbOX5xVP3wwR5jmWeqfyAMJlQ42UjwpLNNj4zRzLcA51WJsfkuQOKpw5SNxCrNWdhrBxA+gfohcVTh93L/hCZd7pchbOOlzef9PO3ZyqLgTfgXf84mwBeBdxE/s/P5wnfef1TjqH/PxFGg0t7YWTe0eLoUAZ9bki3JX0i0reKp+6uVWlnW9/fAvcteB2qawvaWS56HHUaq67KcQe9Y/HUYVfW1KH/WnMWxlKOhvTbxVMH+zXIOFvxcJLQEfwu+X+0D8dT+oZoVeAI8n+evoudAIAXkF6X+5cOPeVrc8y3oo5LjTkLYy1HQ7p78dSh4fp9ZN7pci2wSengHfM/5P2hvgF4XtErUBe9ELiRvJ+to0teQAfluIM+hTodqd0j846WWnMWxlquhnTT0sGBrQh7iqdk/07x1N1xX0KvOtcP9J+B+xe9AnXZVoTZ2jk7AUPeJ+CrpNXd7dQ5X+NupK8WqTVnYRD63JD+V4OMs5WXFE/dDTlWVEyXb+M53Lqjtcn7iGmoHfYXk1537yyeOkg9U6LWnIVBydGQ7lE8dRjBSJ14dB11RjBq+wF5fpQ/SFhFIM1kPvAh8nzWFjO8FSU57qD/SJ05OXtE5h0t+xVPnaiPH9AFwK9Jm2RxPeEUsb9nSTR3WxI+4CmzQ78HPC1PnN74HWnraZcCbyL8uA/FBOEHeRPCISzrA+sBawBrcsdhylsJjdYi4BrCD/lVwCWEA1yG5A2EOSepncUNCZuRDcXXgWclvP42YCfCWTAlbUw4in7dhL/xJ8Jv1G1ZEmmFtiT9UcAPqdMBeltk3tHystKhK/se8XV1E+PdYboz4SS8VwMfBn4MnEveffBvAc4hbKv7QcJa+ocBdypwfbU8ndAZSqm3NYqnruelpH/O3l48dZDy+zJJaPRrzFkYtBwN6Z7FU4e7itRjS68DNisdvKJ3EF9PD6uQt01bAa8BPkOYzLiMfA1907KUcOf0KcKZDFu0eN01PJwwWhhTN+dVyFvLxqQP/Z9EnaH/PSPzjpb/Kp5aLCC9Ib0euHvp4IQZ6Isj8o6WH9HPRzgx7k64C21SP1cRhhP7bl3CPhCfIRxFW6uxn2v5K/BJwjbW67RQH6U9iPBZaloPB9YIW8k3SPvM3EI4zru0TQiPu1Ky15qzIPrdkL4lMu9oeUXx1PXsx9zr5VLq/KDkshFhSP8HtHfSYYlyC2F49RWEbWH7ahvCZ2qu130FYb7FELyc9M/JvsVTB//bIONsn+9tiqfWv8jRkL6yeOpweMgvI/NOl1ojGDXMIww1r6xOzgXuVyljivnA4wnbyfa50Z+tLCF0tnejn3dM9wUuYOXXuRh4VKWMpW1M+h30b6mzMueVkXlHy9uKp9Yd9Lkh3YL0EYzjGc6jAAgTIP/GHevhVuAjhElxfXIP4H2Eu8bajXSpchnwHvq3pPVurHjC2OkMazJYjjvorYunDkP/10bkHS215ixoBjka0h9TpyHdOzLvaHlV8dR1zQN2IQwt/yewK/173vxIwp7jS6jfINcqtwFfIryXffJg4BDCplLfBT5KWDUwpCOB/5309//NxVOH3/jvR+adLrXmLGgFcjSkrymeOvxo/CIy73S5Cbh36eCK8nBCZ7N249u18ivgcQn1qnJy3EH/mjpD/6+JzDta3lI8tVaqzw3p5qQfSFJrBENz81jgBOo3tF0vPyN0ktRNE8D/kfYe30xYzlraPQmHgKVkrzVnQXOQoyH9CXUa0jdG5h0t/1E8tVZmC8LEvtoNa9/Kj6jzfFgr9mrS39s3FU8dftNTtxSvNWdBDeRoSF9XPHUYwfhZRNbRchNwn8K5NbN1Cc+Gc55iOLRyG3A4473jYJ/cg/Q76FpD/6+LzDta9i6eWo3laEgXUachvRfpIxg/xUcBte1KPzbt6Uu5hLDVrOrJcQe9iLCcsrR70d+OiyLkaEh/RZ1Zvf8ZmXe0vL54akG4Q0p9PmqZvXybMAFN5eW4g96reOo8N4S15iy0bpzvFP8TOCLxb7whw99oarqn/YSEv7EY2I5wgIvKeAnhtMEuLUe8HbiYcOrlFYRNW64h3A0tXe7/u4Aw1L7eVLkLYW+MTab+t664hjDX5bjaQQbknsCpwNoJf+MEwtLXZTkCNbAX4QCrFG8CPpAhiwqaRxgOT+n51RqyuifpQ1YnMKx1ybWsD3yFunfGS4EzgKMJa6ufRBiNyDFkuYDweXwKYfnTMcCZ1D2EaBL4PP3b9KmPcv2O9vWR6gk49N9b9yRPQ1rjA/DayLyj5Q3FUw/LzoTDb2o0+L8n7Kb3ROqMOqxL6Gi8l3AgytIV5G2rnEcY6VJ79iL9fao1qfrnkXmnS60bQGWUoyHt67IVP8DteQ3NTyhMKTcD3yJMhlu/wPU1dRfC0arfpWy9LCZsD638ctxB11pW/abIvKPlP4unVnY5GtJak0DugbNXu2ZVwtG8JRq3ZYQJTHsAaxW4tlzWIWzT/CvKdQSOpFtzFfou17LkWhur3RSRd7TUmgSuFvS5Ic2x8cb/K556PK1H+vPQuZRrgEMZj+2d70dYy3897dfbD+jWJMw+y3EH3eet1d1PZczkaEhrHV6RurTsFsZ0GUtB9wb+QrsN2HmEH801C11TSWsTnie3PWfiNEKHX/Fy3EHX2pr8zZF5R8tri6dW63I1pH09vvI3+Cgg1taEzWjaarTOJ5zoOIQh7FUI8xjOob36vBTYptQFjZlcd9Cblw5OnlNha81ZUAE5GtJah0HkOH5zn+Kp+29H4CraaaiuAvYlzCsYmlUInZ4raKduryGs0lAzOe6gX1k8dei4/DIy72jHZRweu2kFcjSk+xZPHfxvg4wzFQ+zaOYRtPPs+jbC8jn3uA/zKj5AO2cmXAvsUu5Sei/HHfTx1LmD3jcy72h5dfHUqiJHQ/qA4qlhY8KdTUr2kwh3X1qx+5I+WjRT+TV1Pjtdtz1hb4Pc9X0NLoWdixx30NcTdo8s7f6ElVop2T1OfUByNKR/pE5D+vLIvKPlrcVT98/3ydsQLSKc0eDSotnNJ5y4lvpjvnz5YcmL6Kkcd9B7Fk8d5s38LjJv7Y6LKtqT9A/824unDr7RIONMpdYIRl9sQd4G6ETCXYrm5gHAKeSr/2WETW00sxx30D+kzh302yPzjpYacxbUAakN6a3UmW28MXB1RN7RUmsEow/+g3wNz6FYzzFWJRyulKsT4F4YM8txB30dsFnp4MCWpHdcfoRD/4OV41HAydT5gX9pZN7R8o7iqfvhANLr9nrgOaWDj6EXkb4mfZL0E+HGVY476D2Kpw4dlxMj845+Rx36H7g9SP8CvLN46uBrDTLOVGqNYHRd6vPQc3HIP6dtgAtJe08OLR26B3LcQX+3eOrgnQ0yzlZqzFlQB32dtA/S7YT14qXdlfRHAbVGMLrsycTX5wmEg3GU111Ju+N7afnInZbjDvpaYNPSwYEHEm5eUrLXmrOgDrob6Q3pKdTZ0OXFkXlHy38XT91tqwGX07wevzr1WrVjDeA7NH9fFgMbVMjbZTnuoHcvnjp0XP4QmXe61JqzoA7bnfQvxP6lQ0/56hzzzVZqjWB02WtoVofH4FbLJawCfIlm782BVZJ2V4476G8XTx3sP8d8Kyp7lA6tfsjRkO5UPHUYco65Yx0ttUYwuuxTzK3uPorr+0uaD3ySuTdUfq7/Kccd9FWERzKlbUt6x+U7xVOrN3I0pGcAC0sHB14QmXe07F86dMdNAG8BbmTm+roGtw+taW/CBkszvTdLgQ8zjAOWmtif9N+JF5YOTXgfT4rMO11qzVlQj7yQ9C/IAcVTB8c1yDhTqTWC0XUbEvYG+CzhDuLTwCuAO9cMJSDM39mHcKd/ImFd98F4/PVMctxBf6t46iDH0twacxbUQ18hvSF9UPHUYaLTZRF5R8sZOJFNGjc57qCvBDYqHZxwTsRtEXlHS605C+qhDUh/FPBn6jSkz4jMO1reXTy1pDbluIN+XvHUYf7GqZF5p0utOQvqsWeS/oU5qHjqoOks6eVLrREMSfnluIP+ZvHUwUENMs5WasxZ0Bj4MukN6c7FU8P6pD8KqDWCISmfHHfQtYb+d6C/HZdecCekFdsAOJ20D/9fCD3wW7Ikmrunkz5h52DqnXiofOYR9jy/z9R/rgGsSZjEOEnYE30RYcOcvwHnAH8nHGakfjuI9O/wboQl0iUtJCxXTDm19Kqp11+eJZEGKccz9UOKpw6+0CDjTGUJdUYwlOYewEuATwCnETqfTd/7W6Zee9TU3/LQlP7JcQd9bPHUwSENMs5WasxZ0Bj6ImkfxKXAw4unDnd4F0XkHS1nAquXDq7GtiLseHcu6T+cs5WzCZPJtix0TYq3kNCBS3m/ryAsgS3twYSbj5Ts3yieWmNrfeBS0j6Qf6FOQ7prZN7R8t7iqTUXqxP2JziF9hr92crJhO2SnSfSTTnuoGscZ72Q8Ng1JfeV1Om4aIzlaEhrHUl6TIOMM5VaIxia2Z2ANwAXU77hX75cQdhdbr02L1iN5LiD/nzx1MGhDTLOVp5bPLUG4XOkN6SPKJ4a1iFM6krJXmsEQ/+0gNDwX0f9hn/5chOhI+C++3XluIO+hDodul1I77h8sXhqDcadSW9IzwPWKh0ceGpk3tHy/uKpNe0xpD/TLVHOAp7UUh1o5XLcQT+reOrwKOmMyLzTpdacBQ3I00j/gh1ePHXwmQYZZyq1RjCGbDXgg9Rv2JuWYwhLDVVOjjvozxZPHRzWIONspcacBQ3Q0aQ3pI8qHZrwKOBvEXlHS60RjCHakvRNXGqWPxPOnlf7ctxB1xr6fyjpHZfPFU+twcrRkJ5PnYb0CYQNXlKy1xrBGJLdCRvz1G7EU8si4EWZ60Z3dDjp79Uzi6cOm1KdHZm3dsdFA5ajIT2ieOrgkw0yzlRqjWAMxRsIdVy78c5VlgH7Zq0hjcpxB/3p4qmDHI+3asxZkPgU6Q3po0uHJiwj+2vDrMuXWiMY42yCPOu3u1o+SNiWWPnkuIO+GFi3dHDgYaR3dI8uHVqalqMhvQBYu3Rw4HH0dwRjXP0P9RvptosrSfI6gvT35MnFU4eOyzmReafLJdTpuEj/8HjSG9KPFE8dfLxBxplKrRGMcfRE6jfOpcrjMtXZ0OW4g/5E8dTBhxtknK08pXjqMeNpgHkcBbwy4fWThLXTP8wTZ87WJMwy3zzhb1xImOl9Y45AA/Yz2p1XsZRwTsA5hJUcN/HP92xtwuOc+wD3Be4NzG8xy0+Bx7b494dgTcIW0PdJ+BsXE07Luy5Lorl7DPBj0tqfTwOvyBNHSpPjUcCF1HkU8Fj6O4IxLtYlfRLXTOWvhCH3JxM+o3O1DmHjqMNI3/hqpnL71L+heB8h7T1YRp0Nm9Yk/cCqWnMWpFnlaEg/Vjx1LPuHCgAAGAtJREFU8NEGGWf7MXli8dTjYwfyNa5Lga8AjyTPhLt5hJGJr5J3ZcJ2GbIN1WPo72/NkQ0yzlZqzFmQVir1w93nXvmF1BnBGAc7kv6juAz4AmlDwitzP8L58Dk6ANu3mHOc9fm7muMm6ajiqaU5yvHlvIhw5kBpfb6r6Lv1SLu7Po2yWzQ/irRd55ZQ5zM+Dj5GekexxmhdjsektX4bpTnL0ZDWmpn7oQYZZ/tx8SCYOL8krs6PpM4pjasTv4rkZ+XjjoU+z9c5qkFGf1vUazmWuPR1ba699DhPolk930rYLri2lwK30Sz7E6ok7bc+7zmSY6n0kcVTS5FyNKR93p2r1ghG3811U5cb6daky38jZJpL9g9Wyth3nyDtO9nnXUcvxPlF6pkcDWmt/bk/0CDjbMWZus3NAw5mxZ+bc4BtawVcgW1Z8fyXpcBBuBVwjBx30LV27UzdLt0VRuqtHAdd9PWELtfqxnsg4Y7vAsLw+vXAz4HXEY597arVgNcDvyBkvo1wZsRRwDYVc/XZOvT33I4cB6Z9uHhqKZM+H3W5C/09YUwaF58m7TtY6+TOHEemX4BD/+q5HEd1frZ46iDH4TQ1RjCkcZDjDvrw4qmDo+eYb0Udl0cXziy14jDSG9IaZ14vJG299yT1RjCkPstxB30edYb+nxaZd7Q4WVRjYzX625A+hP6OYEh99VnS76BLbg417c6knx9Ra86C1Jocz9Q/Xzx18L4GGWcrNUYwpD7KcQf9/uKpg881yDhbx+VRxVNLBRxK+hf7OcVTh0cBp0fmnS4+CpBWLscd9F+oszvkrpF5R8thxVNLheRoSK8ANiwdnHBiXdMd35YvtUYwpL74POl30A8vnhrWBy6NyDtaziOcpyKNrQeT/ijg2OKpg4MbZJyt1BjBkPogxx30e4unDr7YIONsHZcacxak4g4h/Yv+3OKpwwjGaZF5p0utEQypy3LcQZ9JnaH/p0fmHS2HFk8tVZKjIb0S2Kh0cMI57qmPAmqNYEhddSxp36klwM7FU8MGwGUReUdLrTkLUjU5nql/s3jq4MAGGWcrNUYwpC56Bunfp/cUTx18uUHGmUqtOQtSdQeR/sV/XvHUsCpwamTe6VJrBEPqkhx30H+mzhkROTouhxRPLXVEnxvS7ejvCIbUFceR9h26HXhQ8dR5Oi5n0u3DraTW5Xim/q3iqYN3Ncg4W6kxgiF1wfNI//68u3jq4CsNMs7WcakxZ0HqnANI/yF4YfHUsAD4Q2Te6eKjAA3RBsDlpH13zqDOHfQLIvOOloOKp5Y6agFwEmlfqKuAu5YODmwL3BqRd7TUGsGQaslxB71T8dRwF9I7LrXmLEidlaMh/Xbx1MF+DTLOVmqMYEg1vJD078v+pUNP+eoc862o41JjzoLUefuT/sOwe+nQhBGM30fmnS61RjCkknLcQZ9CmEBc2osj846WA4qnlnoixzP1a4FNSwcHtgJujsg7WmqNYEilfI30O+gdi6eGuwFXR+QdLWcQNkGTNIsHkv4o4LvFUwf/1SDjbKXGCIZUwktI/378d/HUwdcbZJyt41JjzoLUO+8k/Ydij+KpwwjGiZF5p0utEQypTTnuoE8GVikdHHhpZN7Rsn/p0FJf5WhIrwM2Kx0c2JL0RwG1RjCktqTeQd8KbFM8NWxMesel1pwFqbdyNKQ/BCZKBwfeFpl3tOxRPLXUjpeR/n14R+nQU77RIONMpdacBan33k76D8eexVPDfOB3kXmnS60RDCmnjYFrSPsu/JE6Q/8vj8w7Wt5ZPLU0JhaQ3pBeD9y9dHDg/sDiiLyjpdYIhpTL90j7DtwCPKB46jwdl1pzFqSxcX/SHwUcT52G9C2ReUdLjREMKYdXkP75f2vx1MH/Nsg4U6k1Z0EaO/uS/kPyyuKpYR7wy8i806XWCIaUYhPS76BPos4d9L9H5h0tby+eWhpTORrSm4DNSwcHtiD9UUCtEQwpxgTpd9C3AFuXDk7ouFwbkXe01JqzII2tHA3pj6nTkO4dmXe01BjBkGK8ivTP+z7FU4ffhv+LzDvacakxZ0Eae28m/YflNcVThxGMX0TmnS61RjCkJnLcQf+GsJKmtFdH5h0t+xZPLQ1Erob03qWDExrvGyPyjpZaIxjSXEwA3yf9Dnqr0sGBewA3ROQdLb+lTsdFGozNCY14yhf1J9RpSN8YmXe01BjBkObiP0j/fP+/4qnDb8EPIvOOdlxqzFmQBudNpP/QvK546jCC8bOIrKOl1giGtCL3JP0O+tfUuYN+bWTe0fLm4qmVbEHtABFWBR5BaATWrZyllnmEhnCthL/xXuBOwLIsiebuLOBRCa9fE/g88M08caQsngmsnfg3zqB8QzqP9CV7iwm/y0N9/n8dcB7h8extlbM00qfnqfMIM2PfBGxUOYskSaOuAD4AvA9YWjnLnPSlA7A64Y7vibWDSJK0AscDzyCMjHRaX2ZsfgzYrXYISZJWYnPgXoQjoDutDyMATybsqiVJUl88HfhO7RAr0vUOwALgFFxeIknql/MIbdettYPMZl7tACvxOmz8JUn9c2/qLLeesy6PAKwHnA2sXzuIJEkRbiCc43JZ7SAz6fIkwENJWy8uSVJNCwn7tXyvdpCZdHUEYEvgT3ikpCSp35YCOwCn1g6yvK7OATgcG39JUv/NJ2wQ1Dld7ADsCvxb7RCSJGXyGMLmQJ3StUcAqwCnESZNSJI0Ls4nHPXcmWWBXZsE+EbgRbVDSJKU2bqEVQG/rh1kWpdGADYAzgHuHPn6W4EjKH+6nSRpGOYBexFm98e4Hrgf4eAgjTiStPOoDy4fWZI0MIeQ1lZ9vHzkbtsKuJ34Cr2McLa9JEltWhu4hPj2aimwY/HUHfYD0npUe5aPLEkaqFeQ1mb9tHzkbnoGaRX5R7q5nFGSNJ7mAb8nre16dvHUHbMqcBZplfjI4qklSUP3UMKk89i26zxgteKpO2Qf0hr/48pHliQJgK+Q1obtWz5yN2wIXEd8xd0M3LN0aEmSpmwGLCK+HbsBuFvx1B1wFGk9pwPLR5Yk6V8cRFpb9snykevaFlhCfIW57E+S1AVrARcT354tBXYqnrqiH5LWY3pZ8cSSJM3s5aS1ab+iWzvztubZpFWUy/4kSV0yDziRtLbtucVTF7YqcDZplfSI4qklSVqxXUhbFng+Y74scF/SGv9jy0eWJGlOvkRaG/e28pHLSF32txiX/UmSuit1WeCNjOmywE+S1jM6oHxkSZIaeTdpbd2ny0du13akLfu7iLDUQpKkLlsD+Bvx7d1S4EHFU7foZ6T1iF5SPLEkSXFeSlqbdwJjsixwN9Iq4iRc9idJ6o8J4HektX3PK546s4XAOcRXwDLg4cVTS5KUJnVZ4N8IjxN66+2k9YC+UD6yJElZfJG0NvAd5SPnsRFwPfEXvhi4R/HUkiTlsSlwE/Ht4CLC0sLe+QxpPZ/9iyeWJCmvd5HWFh5dPHGi7QlLGWIv+CJgzeKpJUnKa3Xgr8S3h8uAnYunTvAL0no8Ly4fWZKkVuxOWpv4a3qyLPD5pF3ob+nJhUqSNAcThCN/U9rGFxRP3dDqwAWkDXW47E+SNG4eQtqywL+TeVnggpx/DHgzaQf2fIHQSyplPeDuwAYF/81criKsE72m0r/f57q7mvBMrmbd3QNYv9K/3zW+H/H8HYhX+nP3W8KywNhH3JsCexPOGuicTQgnGcX2bhYTPkglPBH4OWnnE3ShLJm6jifmrZ4VehJhjod119y/EeouZYLsuJYlhC3DnxBbuRHG5f3wd6A/n7tNSFsWWLKdbOQY0t6I/y6QcR7wgcScXS0foN0tk+cBR3TgOtsoh2Pddan4fsQXfwe6+7mbtl9izmMKZGxkB9J60X+nzLK/gxIy9qEcmK+q7uDgDlxfX+vuPR24vr6VNoc5x/398Hegm5+7aasDFyZkXAY8rEDOOZkAfklapb+wQM4H0P/hqpWVJVPXmds29H+Y1LrrV1kCbB1R3yszhPfDz3L3PnfLe1Fizt/QkdVyqRdSan3jxxJz9qUcmavCRhzVgevqa919vAPX1dfy0Yj6Xhk/y/GG8llu43O3vBw3ztX3y8kxlFFqh6OzE3L2qZydq8JGnNuB67Luhld8P6y7cam7maQ+Oq++Y+5+M4RqUj5bMOvixKx9KTfnqrARt3Tguqy74ZVbIup7ZYbyfvhZ7tbnbjapk+f3T/nHU4beNwHOIr4Hshi4P2ECYAlLKTPDswtyP1KZzPz3usy66xbfj3jWXbxSz9dT29GbgS0J+xk0ltIgvpe04YeDKdf4S5LUNRcT2tJYqxNWtUSJ7eU8hLTJe38n3P0vjnx9DEcA4tnzjzekumuD70c86y5eyRn2qwN/Jn4X3UngkUTsohvTIE4A7yetgvahbOMvSVIX3Qy8LeH1E0RuABXTAdidtE0IfgMcl/B6SZLGyZcIywJj7UjEssCmd/GrA38hfi/iZYTHB7+PfH0KHwHEc+gv3pDqrg2+H/Gsu3g1NtnZHvgD8e3UxcAWwKK5vqDpaYBvI+0ggs9Sp/FPcXzFf/vxFf/tHKy7eDXrrg2+H/Gsu3h9qruTCcsCXxb5+k2AfWnpXJ1NCT2L2PWKNwIbtxFsjmI3XKgptq7HNUcTXcnclRy1daUeupKjia5k7kqOJvqWeSPg+hXkWllZTDjaek6aDDUcCqzR4P+/vIOBSxJeL0nSOLsceF/C61cHDsmU5R92ITy/j+2V/I20zkMOjgD0P0cTXcnclRy1daUeupKjia5k7kqOJvqYeTXgAuKzTwKPyBVmAvhdYpjn5gqTwA5A/3M00ZXMXclRW1fqoSs5muhK5q7kaKKPmQF2Iz77JHASmSa975EY5AS6cWyhHYD+52iiK5m7kqO2rtRDV3I00ZXMXcnRRB8zT/s58fknCW13krUISwtiAywFdkoNkYkdgP7naKIrmbuSo7au1ENXcjTRlcxdydFEHzNP25600wIvA+60on9gZUMEbyVt5v5nCOsaJUnS3J0MHJ3w+o2At8S+eDPSlv3dANwtPnt2jgD0P0cTXcnclRy1daUeupKjia5k7kqOJvqYeVTqssCbWcEZAysaAXg/aTP3DwIuTXi9JElDdjlhCX2s1Yg4bfChpC37O3/qH+4SRwD6n6OJrmTuSo7aulIPXcnRRFcydyVHE33MvLxVgXOIv5ZJwmmBczIPODHxH3t2/LW2xg5A/3M00ZXMXclRW1fqoSs5muhK5q7kaKKPmWfyHOKvZRL4I3NcFrhn4j/008QLbYsdgP7naKIrmbuSo7au1ENXcjTRlcxdydFEHzPP5kfEX88k8PKV/QNrEbbrjf0HlhKOJewiOwD9z9FEVzJ3JUdtXamHruRooiuZu5KjiT5mns12wBLir+kOywKXHxJ4B2kz9z9F2IFIkiTlcwphaX2sjQhL+2d0L8KSgdjexQ3AXRPCtc0RgP7naKIrmbuSo7au1ENXcjTRlcxdydFEHzOvyIbAdcRf163Afab/2OgIwKGkzdx/N2GIQZIk5XcF8J6E16/KDMsKH0basr/zgIUJoUpwBKD/OZroSuau5KitK/XQlRxNdCVzV3I00cfMK7MqcDbx1zYJPGr6j80jLBFI+WPPau9as7ED0P8cTXQlc1dy1NaVeuhKjia6krkrOZroY+a5eBbx1zbJyLLApyf+oZ+0fKG52AHof44mupK5Kzlq60o9dCVHE13J3JUcTfQx81z9kPjrmwSeBvCthD+wBNi27avMxA5A/3M00ZXMXclRW1fqoSs5muhK5q7kaKKPmedqW9KWBX5zHmFtYaxPAn9KeL0kSWruT4Sl97G2nSD0IOZHvPh64H6EWYl9sJQ5boW4nIncQRqI7YnmztyVHE10JXNXctTWlXroSo4mupK5Kzma6GPmJjYkTAhcJ+K1S+cR1/hDWPbXl8ZfkqRxcwVwYORr508Q30NaCNwW+doaHAGI15UcTXQlc1dy1NaVeuhKjia6krkrOZroY+amViVs8NNYTIM4rU+NvyRJ4yi6LU7pAEiSpJ6yAyBJ0gAtqB2gB66pHaDHrLt41l23+H7Es+46KmUSYJ8mSUD8JMA+6srknz6y7rrF9yOedRevb+1b1HszlAZRkiSNsAMgSdIA2QGQJGmA7ABIkjRAdgAkSRqgIXUAFtcOUEgb12nddetvDoXvRzzrLt5QrnNQHYALagco5PwW/qZ1F28oddcG34941l28Nuquk4bUAfi/2gEKaeM6rbtu/c2h8P2IZ93FG8p1AmEDgZjSNxsDi4i/3j6Um4HNclXYCOsu3hDqzvejW8W6617dtS32euNf2EN7UP8D1mZ5Zb6quoOXdeD6rLvhFN8P627c6q5Nsdcb/8KeehXh7OTaH7Sc5Vbg1TkraRavwbqLNY515/vRrWLddb/u2hJ73fEv7LHNgSOBi6n/wUspFwMfm7qeUu499W9ad82NS935fnSrWHf9qrs2RF3/kA4Dms3qwGq1Q0S4hfC8qibrLl5f664Nvh/xrLt4Xai7XKLacTsAkiT1W1Q7PqRlgJIkaYodAEmSBsgOgCRJA2QHQJKkAbIDIEnSANkBkCRpgOwASJI0QHYAJEkaIDsAkiQNkB0ASZIGyA6AJEkDZAdAkqQBsgMgSdIA2QGQJGmA7ABIkjRAdgAkSRogOwCSJA2QHQBJkgbIDoAkSQNkB0CSpAGyAyBJ0gDZAZAkaYDsAEiSNEB2ACRJGiA7AJIkDdCChNcely2FJEkqagKYrB1CkiSV5SMASZIGyA6AJEkDZAdAkqQBsgMgSdIA2QGQJGmA7ABIkjRAdgAkSRogOwCSJA2QHQBJkgbIDoAkSQNkB0CSpAGyAyBJ0gClnAb4vGwpJElSrKjTeVNOA5yIfJ0kSconqh33EYAkSQNkB0CSpAGyAyBJ0gDZAZAkaYDsAEiSNEB2ACRJGiA7AJIkDZAdAEmSBsgOgCRJA2QHQJKkAbIDIEnSANkBkCRpgOwASJI0QHYAJEkaIDsAkiQNkB0ASZIGyA6AJEkDZAdAkqQBsgMgSdIALUh47eOzpZAkSUVNAJO1Q0iSpLJ8BCBJ0gDZAZAkaYDsAEiSNEB2ACRJGiA7AJIkDdA8XAUgSdLQTM4DrqmdQpIkFXXVPOCU2ikkSVJRf5oHHFs7hSRJKurYCWAV4GRg68phJElS+04Htp8H3A48C7i8bh5JktSyy4FnA0umlwGeAzwIOL5aJEmS1KYfEdr6cyAcBrS8BwO7AvcCNiyXi22AjSJedxqOXtTk+yal2YjwPWrqcsL3SHX05X27ArgA+DZwYsF/t5HjCHsSNC271Qirf/B9k9LsRtx36LgaYfUPvX/f3AlQkqQBsgMgSdIA2QGQJGmA7ABIkjRAdgAkSRogOwCSJA2QHQBJkgbIDoAkSQNkB0CSpAGyAyBJ0gDZAZAkaYDsAEiSNEB2ACRJGiA7AJIkDZAdAEmSBsgOgCRJA2QHQJKkAbIDIEnSANkBkCRpgOwASJI0QHYAJEkaIDsAkiQNkB0ASZIGaEHtABk8Hli3dogB27x2AGmgNgdeVTvEgO1YO0CqcegA+AWQNEQ7Ah+vHUL95SMASZIGyA6AJEkDZAdAkqQBsgMgSdIA2QGQJGmAutQBWFY7gIpaWjuA1BF+F4alM21dlzoAV9QOoKIuqx1A6ograwdQUZ357etSB+D3tQOomFuB02qHkDriZMJ3QsNwYu0A07rUAfgOcF3tECriG8CNtUNIHXET8K3aIVTEtcD3aoeYNr92gBG3ADcDT64dRK26EXg+4YsgKfgT8DJgYeUcatc+wC9rh+iyI4FJy1iWRcBTkDSTpwKLqf89tbRTPoLm5JWEiRK13zBLvnICsB2SVmQH4NfU/75a8pXLgFfQQRO1A6zAasBjCV+IuwKr1I2jCIuAvwI/B06pnEXqk+2BRwF3B9asnEXN3U5o+E8Cfkp4xC1JkiRJkiRJkiRJkiRJkiRJkiRJkiRJkiRJkiRJkiRJkiRJkiRJkiRJkiRJkiRJkiRJkiRJkiRJkiRJkiRJkiRJkiRJkiRJkiRJkiRJkiRJkiRJkiRJkiRJkiRJkiRJkiRJkiRJkiRJkiRJkiRJkiRJkiRJkiRJkiRJkiRJkiRJkiRJkiRJkiRJkiRJkiRJkiRJkiRJkiRJkiRJkiRJkiRJkiRJkiRJkiRJkiRJkiRJkiRJmsH/B/N2kckERoBgAAAAAElFTkSuQmCC" vertex="1" parent="1">
          <mxGeometry x="340" y="130" width="60" height="60" as="geometry" />
        </mxCell>
        <mxCell id="z-h519-FT7M5sTP4B4l5-12" value="&lt;font style=&quot;font-size: 14px;&quot; face=&quot;Times New Roman&quot;&gt;Compromised&lt;br&gt;Web Server&lt;/font&gt;" style="text;html=1;strokeColor=none;fillColor=none;align=center;verticalAlign=middle;whiteSpace=wrap;rounded=0;fontSize=11;fontFamily=Helvetica;fontColor=default;" vertex="1" parent="1">
          <mxGeometry x="110" y="213" width="120" height="16" as="geometry" />
        </mxCell>
        <mxCell id="z-h519-FT7M5sTP4B4l5-13" value="&lt;font style=&quot;font-size: 14px;&quot; face=&quot;Times New Roman&quot;&gt;Email Server&lt;/font&gt;" style="text;whiteSpace=wrap;html=1;fontSize=11;fontFamily=Helvetica;fontColor=default;" vertex="1" parent="1">
          <mxGeometry x="330" y="330" width="110" height="60" as="geometry" />
        </mxCell>
        <mxCell id="z-h519-FT7M5sTP4B4l5-14" value="&lt;font style=&quot;font-size: 14px;&quot; face=&quot;Times New Roman&quot;&gt;Network Hub&lt;/font&gt;" style="text;whiteSpace=wrap;html=1;fontSize=11;fontFamily=Helvetica;fontColor=default;" vertex="1" parent="1">
          <mxGeometry x="330" y="110" width="110" height="60" as="geometry" />
        </mxCell>
        <mxCell id="z-h519-FT7M5sTP4B4l5-15" value="&lt;font style=&quot;font-size: 14px;&quot; face=&quot;Times New Roman&quot;&gt;Database Server&lt;/font&gt;" style="text;whiteSpace=wrap;html=1;fontSize=11;fontFamily=Helvetica;fontColor=default;" vertex="1" parent="1">
          <mxGeometry x="460" y="240" width="110" height="60" as="geometry" />
        </mxCell>
        <mxCell id="z-h519-FT7M5sTP4B4l5-17" value="\(n_1\):&amp;nbsp;&amp;nbsp; data retrieval" style="text;html=1;strokeColor=none;fillColor=none;align=center;verticalAlign=middle;whiteSpace=wrap;rounded=0;fontFamily=Times New Roman;fontSize=14;rotation=-20;" vertex="1" parent="1">
          <mxGeometry x="220" y="153" width="121.5" height="20" as="geometry" />
        </mxCell>
        <mxCell id="z-h519-FT7M5sTP4B4l5-19" value="\(n_2\):&amp;nbsp; &amp;nbsp;gather data" style="text;html=1;strokeColor=none;fillColor=none;align=center;verticalAlign=middle;whiteSpace=wrap;rounded=0;fontFamily=Times New Roman;fontSize=14;rotation=25;" vertex="1" parent="1">
          <mxGeometry x="401" y="156" width="121.5" height="20" as="geometry" />
        </mxCell>
        <mxCell id="z-h519-FT7M5sTP4B4l5-24" value="\(n_3\):&amp;nbsp; &amp;nbsp;send out span emails" style="text;html=1;strokeColor=none;fillColor=none;align=center;verticalAlign=middle;whiteSpace=wrap;rounded=0;fontFamily=Times New Roman;fontSize=14;rotation=30;" vertex="1" parent="1">
          <mxGeometry x="203.63" y="280" width="154.25" height="6.67" as="geometry" />
        </mxCell>
        <mxCell id="z-h519-FT7M5sTP4B4l5-25" value="Data Transfer Rate: Mbps" style="text;html=1;strokeColor=none;fillColor=none;align=center;verticalAlign=middle;whiteSpace=wrap;rounded=0;fontSize=11;fontFamily=Helvetica;fontColor=default;" vertex="1" parent="1">
          <mxGeometry x="300" y="213" width="140" height="30" as="geometry" />
        </mxCell>
      </root>
    </mxGraphModel>
  </diagram>
</mxfile>
